<?xml version="1.0" encoding="utf-8"?>
<!-- Generator: Adobe Illustrator 23.0.0, SVG Export Plug-In . SVG Version: 6.00 Build 0)  -->
<svg version="1.1" id="xiala" xmlns="http://www.w3.org/2000/svg" xmlns:xlink="http://www.w3.org/1999/xlink" x="0px" y="0px"
	 viewBox="0 0 300 282" style="enable-background:new 0 0 300 282;" xml:space="preserve">
<style type="text/css">
	.st0{fill-rule:evenodd;clip-rule:evenodd;fill:#5E646C;}
	.st1{fill-rule:evenodd;clip-rule:evenodd;fill:#008BFF;}
	.st2{fill-rule:evenodd;clip-rule:evenodd;fill:#78808C;}
	.st3{fill-rule:evenodd;clip-rule:evenodd;fill:#7D848D;}
	.st4{fill-rule:evenodd;clip-rule:evenodd;fill:#00A4FF;}
	.st5{opacity:0.9;fill-rule:evenodd;clip-rule:evenodd;fill:#7C848E;enable-background:new    ;}
	.st6{opacity:0.9;fill-rule:evenodd;clip-rule:evenodd;fill:#00A4FF;enable-background:new    ;}
	.st7{opacity:0.9;fill-rule:evenodd;clip-rule:evenodd;fill:#999999;enable-background:new    ;}
	.st8{fill-rule:evenodd;clip-rule:evenodd;fill:#999999;}
	.st9{fill-rule:evenodd;clip-rule:evenodd;fill:#7F7F7F;}
	.st10{opacity:0.9;fill-rule:evenodd;clip-rule:evenodd;fill:#FFFFFF;enable-background:new    ;}
	.st11{fill:#7D848D;}
	.st12{fill:#00A4FF;}
	.st13{fill:#FFFFFF;}
	.st14{fill:#DDDDDD;}
	.st15{fill:#F7F8FA;}
	.st16{fill:#0085F2;}
	.st17{fill:#999999;}
	.st18{fill-rule:evenodd;clip-rule:evenodd;fill:#666666;}
	.st19{fill-rule:evenodd;clip-rule:evenodd;fill:#FFFFFF;}
	.st20{fill:#7C848E;}
	.st21{fill:#E54545;}
	.st22{fill:#666666;}
	.st23{opacity:0.2;fill-rule:evenodd;clip-rule:evenodd;fill:#FFFFFF;enable-background:new    ;}
	.st24{fill:none;stroke:#FFFFFF;stroke-miterlimit:10;}
	.st25{fill:none;stroke:#FFFFFF;stroke-width:2;}
	.st26{fill:none;stroke:#FFFFFF;}
	.st27{opacity:0.2;fill-rule:evenodd;clip-rule:evenodd;fill:#598AFF;enable-background:new    ;}
	.st28{fill:none;stroke:#00A4FF;stroke-miterlimit:10;}
	.st29{fill:none;stroke:#00A4FF;stroke-width:2;}
	.st30{fill:none;stroke:#00A4FF;}
	.st31{filter:url(#Adobe_OpacityMaskFilter);}
	.st32{mask:url(#chb_1_);fill-rule:evenodd;clip-rule:evenodd;fill:#E54545;}
	.st33{clip-path:url(#SVGID_2_);}
	.st34{clip-path:url(#SVGID_4_);fill:#989898;}
	.st35{fill:#0ABF5B;}
	.st36{clip-path:url(#SVGID_6_);}
	.st37{clip-path:url(#SVGID_8_);fill:#989898;}
	.st38{fill:#444444;}
	.st39{clip-path:url(#SVGID_10_);}
	.st40{clip-path:url(#SVGID_12_);fill:#989898;}
	.st41{fill:#CCCCCC;}
	.st42{fill-rule:evenodd;clip-rule:evenodd;fill:#F74042;}
	.st43{fill-rule:evenodd;clip-rule:evenodd;fill:#0ABF5B;}
	.st44{fill:#00A3FF;}
	.st45{fill:#00C8DC;}
	.st46{fill:#006EFF;}
	.st47{fill-rule:evenodd;clip-rule:evenodd;fill:#FF7800;stroke:#FF7800;}
	.st48{fill-rule:evenodd;clip-rule:evenodd;fill:#2B2B2B;}
	.st49{fill-rule:evenodd;clip-rule:evenodd;fill:#2A2B2B;}
	.st50{fill:#62BC00;}
	.st51{fill:none;}
	.st52{fill-rule:evenodd;clip-rule:evenodd;fill:#006FFF;}
	.st53{fill:#AAAAAA;}
	.st54{fill-rule:evenodd;clip-rule:evenodd;fill:url(#SVGID_13_);}
	.st55{filter:url(#Adobe_OpacityMaskFilter_1_);}
	.st56{mask:url(#ewb_1_);fill-rule:evenodd;clip-rule:evenodd;fill:#0ABF5B;}
	.st57{fill:#7F7F7F;}
	.st58{fill:#2B303B;}
	.st59{fill-rule:evenodd;clip-rule:evenodd;fill:#2B303B;}
	.st60{fill:#231815;}
	.st61{font-family:'Helvetica-Roman-SemiB';}
	.st62{font-size:42.7698px;}
	.st63{fill:#FFF000;}
	.st64{font-family:'HelveticaNeueLT-ExtBlackCond';}
	.st65{font-size:10.3145px;}
	.st66{font-size:10.366px;}
	.st67{fill:#040000;}
	.st68{font-size:15.1304px;}
	.st69{font-size:3.6489px;}
	.st70{font-size:3.6671px;}
	.st71{fill:#2B3945;}
	.st72{font-family:'59--Regular';}
	.st73{font-size:14.4255px;}
	.st74{font-size:11.3508px;}
	.st75{font-size:2.7374px;}
	.st76{font-size:2.7511px;}
	.st77{fill:#2A3844;}
	.st78{font-family:'ShouShuti';}
	.st79{font-size:5.3908px;}
	.st80{fill:#B7B6B6;}
	.st81{font-family:'AdobeSongStd-Light-GBpc-EUC-H';}
	.st82{font-size:5.1379px;}
</style>
<g id="aaXMLID_2_">
	<g id="aaXMLID_42_">
		<path id="aaXMLID_44_" class="st0" d="M93,258v2h12v-2H93z M93,264h12v-2H93V264z M93,268h12v-2H93V268z"/>
	</g>
</g>
<g id="abXMLID_2_">
	<g id="abXMLID_42_">
		<path id="abXMLID_44_" class="st1" d="M75,240v2h12v-2H75z M75,246h12v-2H75V246z M75,250h12v-2H75V250z"/>
	</g>
</g>
<g id="acXMLID_16_">
	<path id="acXMLID_17_" class="st2" d="M155.5,263l-0.7-0.7l-3.6-3.5l-0.7,0.7l3.6,3.5l-3.6,3.5l0.7,0.7l3.6-3.5L155.5,263z"/>
</g>
<g id="adXMLID_16_">
	<path id="adXMLID_17_" class="st1" d="M263.5,263l-0.7-0.7l-3.6-3.5l-0.7,0.7l3.6,3.5l-3.6,3.5l0.7,0.7l3.6-3.5L263.5,263z"/>
</g>
<g id="aeXMLID_2_">
	<g id="aeXMLID_48_">
		<path id="aeXMLID_49_" class="st3" d="M193,143l-1.5-1.5L187,137l-1.5,1.5l4.5,4.5l-4.5,4.5l1.5,1.5l4.5-4.5L193,143z"/>
	</g>
</g>
<g id="afXMLID_2_">
	<g id="afXMLID_48_">
		<path id="afXMLID_49_" class="st4" d="M291,220l-1.5-1.5L285,214l-1.5,1.5l4.5,4.5l-4.5,4.5l1.5,1.5l4.5-4.5L291,220z"/>
	</g>
</g>
<title>Group 9</title>
<path class="st5" d="M46.5,277l-3.5-3l1.2-1l4.8,4l-4.8,4l-1.2-1L46.5,277z M52.5,277l-3.5-3l1.2-1l4.8,4l-4.8,4l-1.2-1L52.5,277z"
	/>
<title>Group 9</title>
<path class="st6" d="M60.5,277l-3.5-3l1.2-1l4.8,4l-4.8,4l-1.2-1L60.5,277z M66.5,277l-3.5-3l1.2-1l4.8,4l-4.8,4l-1.2-1L66.5,277z"
	/>
<title>Group 9</title>
<path class="st7" d="M74.5,277l-3.5-3l1.2-1l4.8,4l-4.8,4l-1.2-1L74.5,277z M80.5,277l-3.5-3l1.2-1l4.8,4l-4.8,4l-1.2-1L80.5,277z"
	/>
<title>Shape Copy 5</title>
<path class="st8" d="M86.4,273l4.6,4.3l4.6-4.3l1.4,1.3l-6,5.7l-6-5.7L86.4,273z"/>
<path class="st9" d="M278.6,113l-5.6,5.3l-5.6-5.3l-1.4,1.3l7,6.7l7-6.7L278.6,113z"/>
<path class="st4" d="M278.6,185l-5.6,5.3l-5.6-5.3l-1.4,1.3l7,6.7l7-6.7L278.6,185z"/>
<title>Combined Shape Copy 9</title>
<path class="st5" d="M295.5,203l-3.5-3l1.2-1l4.8,4l-4.8,4l-1.2-1L295.5,203z"/>
<title>Combined Shape Copy 9</title>
<path class="st6" d="M296.5,218l-3.5-3l1.2-1l4.8,4l-4.8,4l-1.2-1L296.5,218z"/>
<title>Combined Shape Copy 9</title>
<path class="st10" d="M198.5,141l-3.5-3l1.2-1l4.8,4l-4.8,4l-1.2-1L198.5,141z"/>
<title>Artboard</title>
<path class="st5" d="M32.5,277l-3.5-3l1.2-1l4.8,4l-4.8,4l-1.2-1L32.5,277z M38.5,277l-3.5-3l1.2-1l4.8,4l-4.8,4l-1.2-1L38.5,277z"
	/>
<title>Artboard</title>
<path class="st6" d="M18.5,277l-3.5-3l1.2-1l4.8,4l-4.8,4l-1.2-1L18.5,277z M24.5,277l-3.5-3l1.2-1l4.8,4l-4.8,4l-1.2-1L24.5,277z"
	/>
<title>Artboard</title>
<path class="st10" d="M4.5,277L1,274l1.2-1l4.8,4l-4.8,4L1,280L4.5,277z M10.5,277L7,274l1.2-1l4.8,4l-4.8,4L7,280L10.5,277z"/>
<path class="st9" d="M296.6,13L291,7.7l-5.6,5.3l-1.4-1.3l7-6.7l7,6.7L296.6,13z"/>
<path class="st4" d="M296.6,31l-5.6-5.3l-5.6,5.3l-1.4-1.3l7-6.7l7,6.7L296.6,31z"/>
<title>2</title>
<path class="st11" d="M291,164.8c3.3-0.1,6.1,2.4,6.2,5.7c0,0,0,0,0,0c-0.1,3.3-2.9,5.9-6.2,5.8c0,0,0,0,0,0c-0.6,0-1.3-0.1-1.9-0.3
	l-0.6-0.2l-0.6,0.2l-1.1,0.4v-1.7l-0.5-0.5c-1-1-1.5-2.3-1.5-3.7C284.9,167.2,287.7,164.6,291,164.8C291,164.7,291,164.7,291,164.8
	 M291,163c-4.3-0.1-7.8,3.2-8,7.5c0,1.8,0.7,3.6,2,4.9v3.6l3.5-1.4c0.8,0.3,1.6,0.4,2.5,0.4c4.3,0.1,7.8-3.2,8-7.5
	C298.8,166.2,295.3,162.9,291,163z"/>
<path class="st11" d="M292.9,166.9c-0.6-0.4-1.3-0.6-2.1-0.6c-0.6,0-1.1,0.1-1.6,0.4c-0.7,0.5-1.2,1.3-1.1,2.2v0.1h1.8V169
	c0-0.3,0.1-0.6,0.2-0.8c0.2-0.3,0.5-0.4,0.8-0.4c0.3,0,0.6,0.1,0.8,0.3c0.1,0.2,0.2,0.4,0.2,0.7c0,0.2-0.1,0.4-0.2,0.6
	c-0.1,0.1-0.2,0.2-0.3,0.3L291,170c-0.3,0.2-0.6,0.5-0.8,0.9c-0.1,0.4-0.2,0.8-0.2,1.1h1.7c0-0.1,0-0.3,0.1-0.4
	c0.1-0.2,0.2-0.4,0.4-0.5l0.4-0.3c0.3-0.2,0.6-0.5,0.8-0.8c0.3-0.4,0.4-0.8,0.4-1.3C293.8,168,293.5,167.4,292.9,166.9z M290,173
	h1.9v1.6H290V173z"/>
<path class="st12" d="M291,182.8c3.3-0.1,6.1,2.4,6.2,5.7c0,0,0,0,0,0c-0.1,3.3-2.9,5.9-6.2,5.8c0,0,0,0,0,0c-0.6,0-1.3-0.1-1.9-0.3
	l-0.6-0.2l-0.6,0.2l-1.1,0.4v-1.7l-0.5-0.5c-1-1-1.5-2.3-1.5-3.7C284.9,185.2,287.7,182.6,291,182.8C291,182.7,291,182.7,291,182.8
	 M291,181c-4.3-0.1-7.8,3.2-8,7.5c0,1.8,0.7,3.6,2,4.9v3.6l3.5-1.4c0.8,0.3,1.6,0.4,2.5,0.4c4.3,0.1,7.8-3.2,8-7.5
	C298.8,184.2,295.3,180.9,291,181z"/>
<path class="st12" d="M292.9,184.9c-0.6-0.4-1.3-0.6-2.1-0.6c-0.6,0-1.1,0.1-1.6,0.4c-0.7,0.5-1.2,1.3-1.1,2.2v0.1h1.8V187
	c0-0.3,0.1-0.6,0.2-0.8c0.2-0.3,0.5-0.4,0.8-0.4c0.3,0,0.6,0.1,0.8,0.3c0.1,0.2,0.2,0.4,0.2,0.7c0,0.2-0.1,0.4-0.2,0.6
	c-0.1,0.1-0.2,0.2-0.3,0.3L291,188c-0.3,0.2-0.6,0.5-0.8,0.9c-0.1,0.4-0.2,0.8-0.2,1.1h1.7c0-0.1,0-0.3,0.1-0.4
	c0.1-0.2,0.2-0.4,0.4-0.5l0.4-0.3c0.3-0.2,0.6-0.5,0.8-0.8c0.3-0.4,0.4-0.8,0.4-1.3C293.8,186,293.5,185.4,292.9,184.9z M290,191
	h1.9v1.6H290V191z"/>
<title>2</title>
<path class="st13" d="M67,218.8c3.3-0.1,6.1,2.4,6.2,5.7c0,0,0,0,0,0c-0.1,3.3-2.9,5.9-6.2,5.8c0,0,0,0,0,0c-0.6,0-1.3-0.1-1.9-0.3
	l-0.6-0.2l-0.6,0.2l-1.1,0.4v-1.7l-0.5-0.5c-1-1-1.5-2.3-1.5-3.7C60.9,221.2,63.7,218.6,67,218.8C67,218.7,67,218.7,67,218.8
	 M67,217c-4.3-0.1-7.8,3.2-8,7.5c0,1.8,0.7,3.6,2,4.9v3.6l3.5-1.4c0.8,0.3,1.6,0.4,2.5,0.4c4.3,0.1,7.8-3.2,8-7.5
	C74.8,220.2,71.3,216.9,67,217z"/>
<path class="st13" d="M68.9,220.9c-0.6-0.4-1.3-0.6-2.1-0.6c-0.6,0-1.1,0.1-1.6,0.4c-0.7,0.5-1.2,1.3-1.1,2.2v0.1h1.8V223
	c0-0.3,0.1-0.6,0.2-0.8c0.2-0.3,0.5-0.4,0.8-0.4c0.3,0,0.6,0.1,0.8,0.3c0.1,0.2,0.2,0.4,0.2,0.7c0,0.2-0.1,0.4-0.2,0.6
	c-0.1,0.1-0.2,0.2-0.3,0.3L67,224c-0.3,0.2-0.6,0.5-0.8,0.9c-0.1,0.4-0.2,0.8-0.2,1.1h1.7c0-0.1,0-0.3,0-0.4
	c0.1-0.2,0.2-0.4,0.4-0.5l0.4-0.3c0.3-0.2,0.6-0.5,0.8-0.8c0.3-0.4,0.4-0.8,0.4-1.3C69.8,222,69.5,221.4,68.9,220.9z M66,227h1.9
	v1.6H66V227z"/>
<title>复-常态</title>
<path class="st13" d="M77.5,217.5h15v15h-15V217.5z"/>
<path class="st14" d="M92,218v14H78v-14H92 M93,217H77v16h16V217z"/>
<title>复-选中</title>
<path class="st12" d="M95,217h16v16H95V217z"/>
<path class="st13" d="M108.8,222.4l-1.3-1.4l-6,6.3l-2.4-2.5l-1.3,1.4l2.4,2.4l1.3,1.4l1.3-1.4C102.8,228.6,108.8,222.4,108.8,222.4
	z"/>
<title>复-不可点</title>
<path class="st15" d="M167.5,217.5h15v15h-15V217.5z"/>
<path class="st14" d="M182,218v14h-14v-14H182 M183,217h-16v16h16V217z"/>
<title>复-不可点02</title>
<path class="st15" d="M91.5,237.5h15v15h-15V237.5z"/>
<path class="st14" d="M106,238v14H92v-14H106 M107,237H91v16h16V237z"/>
<path class="st14" d="M104.8,242.4l-1.3-1.4l-6,6.3l-2.4-2.5l-1.3,1.4l2.4,2.4l1.3,1.4l1.3-1.4C98.8,248.6,104.8,242.4,104.8,242.4z
	"/>
<path class="st13" d="M122.5,251.5c-0.3,0-0.5-0.1-0.7-0.3l-11-11c-0.4-0.4-0.4-1,0-1.4c0.4-0.4,1-0.4,1.4,0l11,11
	c0.4,0.4,0.4,1,0,1.4C123,251.4,122.8,251.5,122.5,251.5z"/>
<path class="st13" d="M111.5,251.5c-0.3,0-0.5-0.1-0.7-0.3c-0.4-0.4-0.4-1,0-1.4l11-11c0.4-0.4,1-0.4,1.4,0c0.4,0.4,0.4,1,0,1.4
	l-11,11C112,251.4,111.8,251.5,111.5,251.5z"/>
<path class="st13" d="M194.5,251.5c-0.3,0-0.5-0.1-0.7-0.3l-11-11c-0.4-0.4-0.4-1,0-1.4c0.4-0.4,1-0.4,1.4,0l11,11
	c0.4,0.4,0.4,1,0,1.4C195,251.4,194.8,251.5,194.5,251.5z"/>
<path class="st13" d="M183.5,251.5c-0.3,0-0.5-0.1-0.7-0.3c-0.4-0.4-0.4-1,0-1.4l11-11c0.4-0.4,1-0.4,1.4,0c0.4,0.4,0.4,1,0,1.4
	l-11,11C184,251.4,183.8,251.5,183.5,251.5z"/>
<path class="st16" d="M212.5,251.5c-0.3,0-0.5-0.1-0.7-0.3l-11-11c-0.4-0.4-0.4-1,0-1.4c0.4-0.4,1-0.4,1.4,0l11,11
	c0.4,0.4,0.4,1,0,1.4C213,251.4,212.8,251.5,212.5,251.5z"/>
<path class="st16" d="M201.5,251.5c-0.3,0-0.5-0.1-0.7-0.3c-0.4-0.4-0.4-1,0-1.4l11-11c0.4-0.4,1-0.4,1.4,0c0.4,0.4,0.4,1,0,1.4
	l-11,11C202,251.4,201.8,251.5,201.5,251.5z"/>
<path class="st16" d="M230.5,251.5c-0.3,0-0.5-0.1-0.7-0.3l-11-11c-0.4-0.4-0.4-1,0-1.4c0.4-0.4,1-0.4,1.4,0l11,11
	c0.4,0.4,0.4,1,0,1.4C231,251.4,230.8,251.5,230.5,251.5z"/>
<path class="st16" d="M219.5,251.5c-0.3,0-0.5-0.1-0.7-0.3c-0.4-0.4-0.4-1,0-1.4l11-11c0.4-0.4,1-0.4,1.4,0c0.4,0.4,0.4,1,0,1.4
	l-11,11C220,251.4,219.8,251.5,219.5,251.5z"/>
<path class="st13" d="M248.5,251.5c-0.3,0-0.5-0.1-0.7-0.3l-11-11c-0.4-0.4-0.4-1,0-1.4s1-0.4,1.4,0l11,11c0.4,0.4,0.4,1,0,1.4
	C249,251.4,248.8,251.5,248.5,251.5L248.5,251.5z"/>
<path class="st13" d="M237.5,251.5c-0.3,0-0.5-0.1-0.7-0.3c-0.4-0.4-0.4-1,0-1.4l11-11c0.4-0.4,1-0.4,1.4,0s0.4,1,0,1.4l-11,11
	C238,251.4,237.8,251.5,237.5,251.5L237.5,251.5z"/>
<path class="st17" d="M278.5,15.5c-0.3,0-0.5-0.1-0.7-0.3l-11-11c-0.4-0.4-0.4-1,0-1.4c0.4-0.4,1-0.4,1.4,0l11,11
	c0.4,0.4,0.4,1,0,1.4C279,15.4,278.8,15.5,278.5,15.5z"/>
<path class="st17" d="M267.5,15.5c-0.3,0-0.5-0.1-0.7-0.3c-0.4-0.4-0.4-1,0-1.4l11-11c0.4-0.4,1-0.4,1.4,0c0.4,0.4,0.4,1,0,1.4
	l-11,11C268,15.4,267.8,15.5,267.5,15.5z"/>
<path class="st18" d="M273.7,45l5.3,5.3l-0.7,0.7l-5.3-5.3l-5.3,5.3l-0.7-0.7l5.3-5.3l-5.3-5.3l0.7-0.7l5.3,5.3l5.3-5.3l0.7,0.7
	L273.7,45z"/>
<path id="biXMLID_2_" class="st19" d="M280,56.8l-1,3c0,0-8.5-1.9-9.1,3c-0.1,1.3,0.6,4.5,8.1,3c-0.3,1.4-1,3-1,3s-7.8,1.2-10.2-2.7
	c-2.4-4,1.1-7.2,3.4-8.2C272.2,57,275.1,56.2,280,56.8z"/>
<title>icon</title>
<path class="st20" d="M275,77h-4c-0.6,0-1,0.4-1,1v6c0,0.6,0.4,1,1,1s1-0.4,1-1v-1h3c0.6,0,1-0.4,1-1v-4C276,77.4,275.6,77,275,77z
	 M274,81h-2v-2h2V81z M278,73h-11c-1.1,0-2,0.9-2,2v12c0,1.1,0.9,2,2,2h12c1.1,0,2-0.9,2-2V76L278,73z M279,87h-12V75h10l2,2V87z"/>
<g>
	<path class="st21" d="M273,92c-3.9,0-7,3.1-7,7c0,3.9,3.1,7,7,7s7-3.1,7-7C280,95.1,276.9,92,273,92z M273,104c-2.8,0-5-2.2-5-5
		s2.2-5,5-5s5,2.2,5,5S275.8,104,273,104z"/>
	<path class="st21" d="M272,95h2v5h-2V95z M272,101h2v2h-2V101z"/>
</g>
<path class="st13" d="M252.1,95c0.2,0,0.5,0,0.7,0.3c0.3,0.3,0.3,0.7,0.2,1l-0.2,0.7h-3.1l1.7-1.7C251.6,95,251.9,95,252.1,95
	 M243.9,95c0.2,0,0.5,0,0.7,0.3l1.7,1.7h-3.1l-0.2-0.7c-0.1-0.3-0.1-0.7,0.2-1C243.5,95,243.8,95,243.9,95 M252.1,93
	c-0.8,0-1.5,0.3-2.1,0.9l-2,1.9l-1.9-1.9c-0.6-0.6-1.4-0.9-2.2-0.9c-0.7,0-1.5,0.3-2.1,0.9c-0.8,0.8-1.1,2-0.7,3.1H239v7h1v7h16v-7
	h1v-7h-2.1c0.4-1.1,0.1-2.3-0.7-3.1C253.6,93.3,252.8,93,252.1,93z M241,102v-3h14v3H241z M249,109v-5h5v5H249z M242,109v-5h5v5H242
	z"/>
<path id="bmXMLID_3_" class="st19" d="M278,129h-10c-0.6,0-1,0.4-1,1v10c0,0.6,0.4,1,1,1h5v-5h-1v-2h1v-1c0-0.5,0.1-2,2-2h2v2h-1
	c-0.3,0-1,0-1,0.2v0.8h2l-0.8,2H275v5h3c0.6,0,1-0.4,1-1v-10C279,129.4,278.6,129,278,129z"/>
<g id="bnXMLID_72_">
	<path id="bnXMLID_78_" class="st22" d="M244,206h4l8.7-8.7c0.4-0.4,0.4-1,0-1.4l-2.6-2.6c-0.2-0.2-0.5-0.3-0.7-0.3
		c-0.3,0-0.5,0.1-0.7,0.3L244,202V206z M253.4,195.4l1.2,1.2l-1,1l-1.2-1.2C252.4,196.4,253.4,195.4,253.4,195.4z M246,202.8
		l4.4-4.5l1.2,1.2l-4.4,4.5H246V202.8z M255,209h-14v-14h7v-2h-9v18h18v-9h-2V209z"/>
</g>
<g id="boXMLID_15_">
	<path id="boXMLID_29_" class="st19" d="M119,153c-8.8,0-16,7.2-16,16s7.2,16,16,16s16-7.2,16-16S127.8,153,119,153z M119,183
		c-7.7,0-14-6.3-14-14s6.3-14,14-14s14,6.3,14,14S126.7,183,119,183z"/>
	<path id="boXMLID_30_" class="st19" d="M125.5,165.3l-1.4-0.5c-0.3,0.9-0.6,1.8-0.9,2.6h-1.5c-0.3-1-0.6-1.9-0.9-2.6l-1.4,0.5
		l0.9,2.1h-1.9v1.5h8.3v-1.5h-1.8C125,166.8,125.3,166.1,125.5,165.3z"/>
	<path id="boXMLID_31_" class="st19" d="M126.1,163H123c-0.2-0.6-0.4-1.1-0.5-1.5l-1.5,0.3c0.2,0.4,0.4,0.8,0.6,1.3h-3.1v1.4h7.7
		L126.1,163L126.1,163z"/>
	<path id="boXMLID_32_" class="st19" d="M113.6,163.5h2.8v8.9h1.3v-10.2h-5.5v10.5h1.4V163.5z"/>
	<path id="boXMLID_33_" class="st19" d="M115.6,164.6h-1.2v5.2c0,1.4-0.2,2.5-0.6,3.4c-0.4,0.8-1.1,1.5-2.3,2l0.8,1.2
		c1.1-0.5,1.9-1.3,2.4-2.3c0.5-1.1,0.8-2.5,0.8-4.3L115.6,164.6L115.6,164.6z"/>
	<path id="boXMLID_34_" class="st19" d="M115.3,173.7c0.9,0.9,1.6,1.8,2.1,2.6l1-1c-0.6-0.8-1.4-1.7-2.2-2.5L115.3,173.7z"/>
	<path id="boXMLID_37_" class="st19" d="M119.1,176.4h1.4v-0.8h3.6v0.8h1.4v-6.3H119L119.1,176.4L119.1,176.4z M120.6,171.5h3.6v2.6
		h-3.6V171.5z"/>
</g>
<g id="bpXMLID_15_">
	<path id="bpXMLID_29_" class="st4" d="M17,153c-8.8,0-16,7.2-16,16s7.2,16,16,16s16-7.2,16-16S25.8,153,17,153z M17,183
		c-7.7,0-14-6.3-14-14s6.3-14,14-14s14,6.3,14,14S24.7,183,17,183z"/>
	<path id="bpXMLID_30_" class="st4" d="M23.5,165.3l-1.4-0.5c-0.3,0.9-0.6,1.8-0.9,2.6h-1.5c-0.3-1-0.6-1.9-0.9-2.6l-1.4,0.5
		l0.9,2.1h-1.9v1.5h8.3v-1.5h-1.8C23,166.8,23.3,166.1,23.5,165.3z"/>
	<path id="bpXMLID_31_" class="st4" d="M24.1,163H21c-0.2-0.6-0.4-1.1-0.5-1.5l-1.5,0.3c0.2,0.4,0.4,0.8,0.6,1.3h-3.1v1.4h7.7V163
		H24.1z"/>
	<path id="bpXMLID_32_" class="st4" d="M11.6,163.5h2.8v8.9h1.3v-10.2h-5.5v10.5h1.4L11.6,163.5z"/>
	<path id="bpXMLID_33_" class="st4" d="M13.6,164.6h-1.2v5.2c0,1.4-0.2,2.5-0.6,3.4c-0.4,0.8-1.1,1.5-2.3,2l0.8,1.2
		c1.1-0.5,1.9-1.3,2.4-2.3c0.5-1.1,0.8-2.5,0.8-4.3L13.6,164.6L13.6,164.6z"/>
	<path id="bpXMLID_34_" class="st4" d="M13.3,173.7c0.9,0.9,1.6,1.8,2.1,2.6l1-1c-0.6-0.8-1.4-1.7-2.2-2.5L13.3,173.7z"/>
	<path id="bpXMLID_37_" class="st4" d="M17.1,176.4h1.4v-0.8h3.6v0.8h1.4v-6.3H17v6.3H17.1z M18.6,171.5h3.6v2.6h-3.6V171.5z"/>
</g>
<path class="st19" d="M85,151c-8.8,0-16-7.2-16-16s7.2-16,16-16s16,7.2,16,16S93.8,151,85,151z M85,121c-7.7,0-14,6.3-14,14
	s6.3,14,14,14s14-6.3,14-14S92.7,121,85,121z M90,134v2h-4v2h4v2h-4v3h-2v-3h-4v-2h4v-2h-4v-2h3l-4-6h2.3l3.7,5.4l3.7-5.4H91l-4,6
	H90z"/>
<path class="st4" d="M119,151c-8.8,0-16-7.2-16-16s7.2-16,16-16s16,7.2,16,16S127.8,151,119,151z M119,121c-7.7,0-14,6.3-14,14
	s6.3,14,14,14s14-6.3,14-14S126.7,121,119,121z M124,134v2h-4v2h4v2h-4v3h-2v-3h-4v-2h4v-2h-4v-2h3l-4-6h2.3l3.7,5.4l3.7-5.4h2.3
	l-4,6H124z"/>
<g id="bsXMLID_54_">
	<path id="bsXMLID_55_" class="st13" d="M153,119c-8.8,0-16,7.2-16,16s7.2,16,16,16s16-7.2,16-16S161.8,119,153,119z M153,149
		c-7.7,0-14-6.3-14-14s6.3-14,14-14s14,6.3,14,14S160.7,149,153,149z"/>
</g>
<g id="bsXMLID_26_">
	<g id="bsXMLID_91_">
		<path id="bsXMLID_92_" class="st19" d="M160.1,135.1l0.7-1.3c-2.2-0.3-4.2-0.8-5.9-1.4c1.3-0.8,2.5-1.8,3.4-2.9v-1.3h-6.4l0.6-0.9
			l-1.6-0.3c-1.2,1.7-2.7,3-4.4,4l1,1.2c0.8-0.5,1.5-1,2.2-1.6c0.6,0.6,1.4,1.2,2.2,1.7c-1.8,0.7-3.8,1.2-6.1,1.5l0.7,1.3
			c0.5-0.1,1-0.2,1.6-0.3v7.2h1.5v-0.6h7.6v0.6h1.5v-7.2h-10.4c1.8-0.4,3.5-1,5-1.7C155.2,134,157.5,134.7,160.1,135.1z M154,136.1
			h3.1v1.4H154V136.1z M154,138.7h3.1v1.4H154V138.7z M149.4,136.1h3.1v1.4h-3.1V136.1z M149.4,138.7h3.1v1.4h-3.1V138.7z
			 M150.5,129.7l0.2-0.2h5.5c-0.8,0.8-1.8,1.5-3,2.1C152.2,131.1,151.3,130.5,150.5,129.7z"/>
	</g>
</g>
<g id="btXMLID_60_">
	<path id="btXMLID_61_" class="st12" d="M187,1c-8.8,0-16,7.2-16,16s7.2,16,16,16s16-7.2,16-16S195.8,1,187,1z M187,31
		c-7.7,0-14-6.3-14-14s6.3-14,14-14s14,6.3,14,14S194.7,31,187,31z"/>
</g>
<g id="btXMLID_26_">
	<g id="btXMLID_91_">
		<path id="btXMLID_92_" class="st4" d="M194.1,17.1l0.7-1.3c-2.2-0.3-4.2-0.8-5.9-1.4c1.3-0.8,2.5-1.8,3.4-2.9v-1.3h-6.4l0.6-0.9
			L184.9,9c-1.2,1.7-2.7,3-4.4,4l1,1.2c0.8-0.5,1.5-1,2.2-1.6c0.6,0.6,1.4,1.2,2.2,1.7c-1.8,0.7-3.8,1.2-6.1,1.5l0.7,1.3
			c0.5-0.1,1-0.2,1.6-0.3V24h1.5v-0.6h7.6V24h1.5v-7.2h-10.4c1.8-0.4,3.5-1,5-1.7C189.2,16,191.5,16.7,194.1,17.1z M188,18.1h3.1
			v1.4H188V18.1z M188,20.7h3.1v1.4H188V20.7z M183.4,18.1h3.1v1.4h-3.1V18.1z M183.4,20.7h3.1v1.4h-3.1V20.7z M184.5,11.7l0.2-0.2
			h5.5c-0.8,0.8-1.8,1.5-3,2.1C186.2,13.1,185.3,12.5,184.5,11.7z"/>
	</g>
</g>
<path class="st19" d="M187,67c-8.8,0-16-7.2-16-16s7.2-16,16-16s16,7.2,16,16S195.8,67,187,67z M187,37c-7.7,0-14,6.3-14,14
	s6.3,14,14,14s14-6.3,14-14S194.7,37,187,37z M188.7,59c-6.3,0-5.9-4-5.9-4c0-2.3,1.3-4.3,3.2-5.3c-0.5-0.6-0.8-1.3-0.8-2.2
	c0-1.9,1.5-3.5,3.5-3.5c1.9,0,3.5,1.6,3.5,3.5c0,0.8-0.3,1.6-0.8,2.2c1.9,1,3.2,3,3.2,5.3C194.7,55,194.9,59,188.7,59z M188.7,46
	c-0.8,0-1.5,0.7-1.5,1.5s0.7,1.5,1.5,1.5s1.5-0.7,1.5-1.5S189.5,46,188.7,46z M192.7,55c0-2.2-1.8-4-3.9-4c-2.2,0-3.9,1.8-3.9,4
	c0,0-0.3,2,3.9,2C192.8,57,192.7,55,192.7,55z M183.5,44.7c-0.5,0.6-0.8,1.4-0.8,2.2c0,1,0.4,1.8,1,2.5c-0.8,0.4-2,1-2.4,1.6
	l-0.4,0.4c-0.5,0.9-0.9,1.6-0.9,3.3c0,0,0,0.3,0.1,0.7c-1.2-0.9-1.2-2.2-1.2-2.2c0-1.9,1-3.5,2.6-4.3c-0.4-0.5-0.6-1.1-0.6-1.7
	c0-1.5,1.2-2.8,2.8-2.8h0.3c-0.1,0.1-0.2,0.1-0.2,0.2C183.6,44.6,183.6,44.7,183.5,44.7z"/>
<path class="st4" d="M187,101c-8.8,0-16-7.2-16-16s7.2-16,16-16s16,7.2,16,16S195.8,101,187,101z M187,71c-7.7,0-14,6.3-14,14
	s6.3,14,14,14s14-6.3,14-14S194.7,71,187,71z M188.7,93c-6.3,0-5.9-4-5.9-4c0-2.3,1.3-4.3,3.2-5.3c-0.5-0.6-0.8-1.3-0.8-2.2
	c0-1.9,1.5-3.5,3.5-3.5c1.9,0,3.5,1.6,3.5,3.5c0,0.8-0.3,1.6-0.8,2.2c1.9,1,3.2,3,3.2,5.3C194.7,89,194.9,93,188.7,93z M188.7,80
	c-0.8,0-1.5,0.7-1.5,1.5s0.7,1.5,1.5,1.5s1.5-0.7,1.5-1.5S189.5,80,188.7,80z M192.7,89c0-2.2-1.8-4-3.9-4c-2.2,0-3.9,1.8-3.9,4
	c0,0-0.3,2,3.9,2C192.8,91,192.7,89,192.7,89z M183.5,78.7c-0.5,0.6-0.8,1.4-0.8,2.2c0,1,0.4,1.8,1,2.5c-0.8,0.4-2,1-2.4,1.6
	l-0.4,0.4c-0.5,0.9-0.9,1.6-0.9,3.3c0,0,0,0.3,0.1,0.7c-1.2-0.9-1.2-2.2-1.2-2.2c0-1.9,1-3.5,2.6-4.3c-0.4-0.5-0.6-1.1-0.6-1.7
	c0-1.5,1.2-2.8,2.8-2.8h0.3c-0.1,0.1-0.2,0.1-0.2,0.2C183.6,78.6,183.6,78.7,183.5,78.7z"/>
<g id="bwXMLID_68_">
	<path id="bwXMLID_69_" class="st13" d="M187,103c-8.8,0-16,7.2-16,16s7.2,16,16,16s16-7.2,16-16S195.8,103,187,103z M187,133
		c-7.7,0-14-6.3-14-14s6.3-14,14-14s14,6.3,14,14S194.7,133,187,133z M190.4,120.2c-0.8,0-1.3,0.4-2,0.4c-0.7,0-3.5-2.9-3.5-3.7
		c0-0.8,0.7-0.6,0.7-1.5c0-0.6-2.4-4.5-3.3-4.5c-0.9,0.1-3.3,2-3.3,3.5c0,4.4,7.8,12.6,12.7,12.6c1.4,0,3.3-1.7,3.3-3.4
		C195,123,191.2,120.3,190.4,120.2z M192.7,124.7c-0.2,0.2-0.4,0.3-0.6,0.4c-0.1,0.1-0.3,0.1-0.4,0.1c-0.9,0-2-0.4-3.3-1.1
		c-1.2-0.7-2.5-1.8-3.7-3c-1.2-1.2-2.2-2.5-2.9-3.7c-0.4-0.6-0.6-1.2-0.8-1.7s-0.3-0.9-0.3-1.3c0,0,0-0.2,0.1-0.3
		c0.1-0.2,0.3-0.4,0.5-0.6s0.5-0.4,0.7-0.5c0,0.1,0.1,0.1,0.1,0.2c0.2,0.3,0.5,0.6,0.7,1c0.4,0.6,0.7,1.2,0.8,1.5
		c0,0.1-0.1,0.1-0.1,0.2c-0.2,0.4-0.4,0.7-0.4,1.5c0,0.5,0.2,1.1,0.8,1.8c0.3,0.4,0.7,0.9,1.2,1.4s1,0.9,1.4,1.2
		c0.7,0.5,1.2,0.8,1.8,0.8c0.7,0,1.2-0.3,1.6-0.5c0.1-0.1,0.2,0,0.3,0.1c0.3,0.1,0.8,0.4,1.5,1c0.7,0.5,1.1,0.8,1.3,1
		C193.1,124.3,192.9,124.5,192.7,124.7z"/>
</g>
<g id="bxXMLID_68_">
	<path id="bxXMLID_69_" class="st12" d="M17,119c-8.8,0-16,7.2-16,16s7.2,16,16,16s16-7.2,16-16S25.8,119,17,119z M17,149
		c-7.7,0-14-6.3-14-14s6.3-14,14-14s14,6.3,14,14S24.7,149,17,149z M20.4,136.2c-0.8,0-1.3,0.4-2,0.4s-3.5-2.9-3.5-3.7
		c0-0.8,0.7-0.6,0.7-1.5c0-0.6-2.4-4.5-3.3-4.5c-0.9,0.1-3.3,2-3.3,3.5c0,4.4,7.8,12.6,12.7,12.6c1.4,0,3.3-1.7,3.3-3.4
		C25,139,21.2,136.3,20.4,136.2z M22.7,140.7c-0.2,0.2-0.4,0.3-0.6,0.4c-0.1,0.1-0.3,0.1-0.4,0.1c-0.9,0-2-0.4-3.3-1.1
		c-1.2-0.7-2.5-1.8-3.7-3c-1.2-1.2-2.2-2.5-2.9-3.7c-0.4-0.6-0.6-1.2-0.8-1.7s-0.3-0.9-0.3-1.3c0,0,0-0.2,0.1-0.3
		c0.1-0.2,0.3-0.4,0.5-0.6s0.5-0.4,0.7-0.5c0,0.1,0.1,0.1,0.1,0.2c0.2,0.3,0.5,0.6,0.7,1c0.4,0.6,0.7,1.2,0.8,1.5
		c0,0.1-0.1,0.1-0.1,0.2c-0.2,0.4-0.4,0.7-0.4,1.5c0,0.5,0.2,1.1,0.8,1.8c0.3,0.4,0.7,0.9,1.2,1.4s1,0.9,1.4,1.2
		c0.7,0.5,1.2,0.8,1.8,0.8c0.7,0,1.2-0.3,1.6-0.5c0.1-0.1,0.2,0,0.3,0.1c0.3,0.1,0.8,0.4,1.5,1c0.7,0.5,1.1,0.8,1.3,1
		C23.1,140.3,22.9,140.5,22.7,140.7z"/>
</g>
<path id="byXMLID_1_" class="st13" d="M126,29.2c-3.9,0-7,3.1-7,7c0,3.1,2,5.7,4.8,6.6c0.4,0.1,0.5-0.1,0.5-0.3v-1.3
	c-1.8,0.3-2.2-0.4-2.4-0.8c-0.1-0.2-0.4-0.8-0.7-1c-0.2-0.1-0.6-0.5,0-0.5s0.9,0.5,1.1,0.7c0.6,1.1,1.6,0.8,2,0.6
	c0.1-0.5,0.2-0.8,0.4-0.9c-1.6-0.2-3.2-0.8-3.2-3.5c0-0.8,0.3-1.4,0.7-1.9c0-0.2-0.2-0.9,0.1-1.8c0,0,0.6-0.2,1.9,0.7
	c0.6-0.2,1.2-0.2,1.8-0.2s1.2,0.1,1.8,0.2c1.3-0.9,1.9-0.7,1.9-0.7c0.4,1,0.1,1.7,0.1,1.9c0.4,0.5,0.7,1.1,0.7,1.9
	c0,2.7-1.6,3.3-3.2,3.5c0.3,0.2,0.5,0.6,0.5,1.3v1.9c0,0.2,0.1,0.4,0.5,0.3c2.8-1,4.8-3.6,4.8-6.6C133,32.3,129.9,29.2,126,29.2z"/>
<path class="st4" d="M144,29c-3.9,0-7,3.1-7,7s3.1,7,7,7s7-3.1,7-7S147.9,29,144,29z M144,42c-3.3,0-6-2.7-6-6s2.7-6,6-6s6,2.7,6,6
	S147.3,42,144,42z M146,35.3l-3-2.3l-1-0.7v7.5l1-0.8l3.6-2.9l0.3-0.1C146.9,36,146,35.3,146,35.3z M143,37.6v-3.3l2.2,1.7L143,37.6
	z"/>
<g id="caXMLID_2_">
	<g id="caXMLID_41_">
		<path id="caXMLID_42_" class="st19" d="M102,102c-3.9,0-7,3.1-7,7s3.1,7,7,7s7-3.1,7-7S105.9,102,102,102z M102,115
			c-3.3,0-6-2.7-6-6s2.7-6,6-6s6,2.7,6,6S105.3,115,102,115z"/>
	</g>
</g>
<path id="caXMLID_1_" class="st23" d="M96.5,106.1c0,0,1.4-0.4,3.2-0.8c1,0.7-0.3,2.2-0.9,2.6c-0.6,0.4,0,1.7,0,1.7v0.9h0.9l0.9,1.5
	l0.9,0.5l0.9-0.3c0,0,1.1-1.5,0-3.5c1.9,0,1.7-1.7,1.7-1.7l4.2,0.7c0,0-0.9-4.1-5.1-5C99,101.8,96.7,105,96.5,106.1z"/>
<path id="caXMLID_3_" class="st24" d="M96.5,106.1c0,0,1.4-0.4,3.2-0.8c1,0.7-0.3,2.2-0.9,2.6c-0.6,0.4,0,1.7,0,1.7v0.9h0.9l0.9,1.5
	l0.9,0.5l0.9-0.3c0,0,1.1-1.5,0-3.5c1.9,0,1.7-1.7,1.7-1.7l4.2,0.7c0,0-0.9-4.1-5.1-5C99,101.8,96.7,105,96.5,106.1z"/>
<g id="cbXMLID_2_">
	<g id="cbXMLID_41_">
		<path id="cbXMLID_42_" class="st13" d="M120,102c-3.9,0-7,3.1-7,7s3.1,7,7,7s7-3.1,7-7S123.9,102,120,102z M120,115
			c-3.3,0-6-2.7-6-6s2.7-6,6-6s6,2.7,6,6S123.3,115,120,115z"/>
	</g>
</g>
<path id="cbXMLID_3_" class="st24" d="M114.5,106.1c0,0,1.4-0.4,3.2-0.8c1,0.7-0.3,2.2-0.9,2.6c-0.6,0.4,0,1.7,0,1.7v0.9h0.9
	l0.9,1.5l0.9,0.5l0.9-0.3c0,0,1.1-1.5,0-3.5c1.9,0,1.7-1.7,1.7-1.7l4.2,0.7c0,0-0.9-4.1-5.1-5C117,101.8,114.7,105,114.5,106.1z"/>
<g>
	<circle class="st25" cx="138" cy="109" r="7"/>
	<path class="st26" d="M131.3,105.5l5.3,1.1l-1,3.1l1.8,0.9l0.9,1.7l1.4-0.7l0.9-1.8l0.1-0.2l2.2-1.8l2.6,0.6
		c-0.3-4.1-3.9-7.2-8-6.9C134.9,101.7,132.5,103.2,131.3,105.5z"/>
</g>
<g id="cdXMLID_2_">
	<g id="cdXMLID_37_">
		<path id="cdXMLID_38_" class="st4" d="M156,102c-3.9,0-7,3.1-7,7s3.1,7,7,7s7-3.1,7-7S159.9,102,156,102z M156,115
			c-3.3,0-6-2.7-6-6s2.7-6,6-6s6,2.7,6,6S159.3,115,156,115z"/>
	</g>
</g>
<path id="cdXMLID_1_" class="st27" d="M150.5,106.1c0,0,1.4-0.4,3.2-0.8c1,0.7-0.3,2.2-0.9,2.6c-0.6,0.4,0,1.7,0,1.7v0.9h0.9
	l0.9,1.5l0.9,0.5l0.9-0.3c0,0,1.1-1.5,0-3.5c1.9,0,1.7-1.7,1.7-1.7l4.2,0.7c0,0-0.9-4.1-5.1-5C153,101.8,150.7,105,150.5,106.1z"/>
<path id="cdXMLID_3_" class="st28" d="M150.5,106.1c0,0,1.4-0.4,3.2-0.8c1,0.7-0.3,2.2-0.9,2.6c-0.6,0.4,0,1.7,0,1.7v0.9h0.9
	l0.9,1.5l0.9,0.5l0.9-0.3c0,0,1.1-1.5,0-3.5c1.9,0,1.7-1.7,1.7-1.7l4.2,0.7c0,0-0.9-4.1-5.1-5C153,101.8,150.7,105,150.5,106.1z"/>
<g>
	<circle class="st29" cx="49" cy="225" r="7"/>
	<path class="st30" d="M42.3,221.5l5.3,1.1l-1,3.1l1.8,0.9l0.9,1.7l1.4-0.7l0.9-1.9l0.1-0.2l2.2-1.8l2.6,0.6c-0.3-4.1-3.9-7.2-8-6.9
		C45.9,217.7,43.5,219.2,42.3,221.5z"/>
</g>
<path class="st13" d="M198.9,195.9c0.3,1,0.5,2,0.5,3.1c0,2.1-0.6,4-1.7,5.6c-1.1-2.4-3.2-4.3-5.7-5.1c1.1-0.9,1.8-2.2,1.8-3.7
	c0-2.7-2.1-4.8-4.8-4.8s-4.8,2.1-4.8,4.8c0,1.5,0.7,2.8,1.8,3.7c-2.5,0.8-4.6,2.7-5.7,5.1c-1.1-1.6-1.7-3.5-1.7-5.6
	c0-5.7,4.7-10.4,10.4-10.4c1.5,0,3,0.3,4.3,0.9c0.2-0.5,0.4-1,0.7-1.4c-1.6-0.7-3.2-1.1-5-1.1c-6.6,0-12,5.4-12,12s5.4,12,12,12
	s12-5.4,12-12c0-1.3-0.2-2.5-0.6-3.7C200,195.6,199.5,195.8,198.9,195.9L198.9,195.9z M185.8,195.8c0-1.8,1.4-3.2,3.2-3.2
	s3.2,1.4,3.2,3.2c0,1.8-1.4,3.2-3.2,3.2S185.8,197.6,185.8,195.8z M189,209.4c-3,0-5.7-1.3-7.6-3.3c1-3.2,4-5.5,7.6-5.5
	c3.5,0,6.5,2.3,7.6,5.5C194.7,208.1,192,209.4,189,209.4z"/>
<path class="st12" d="M198,188c1.7,0,3,1.3,3,3s-1.3,3-3,3s-3-1.3-3-3S196.3,188,198,188z"/>
<path class="st12" d="M224.9,195.9c0.3,1,0.5,2,0.5,3.1c0,2.1-0.6,4-1.7,5.6c-1.1-2.4-3.2-4.3-5.7-5.1c1.1-0.9,1.8-2.2,1.8-3.7
	c0-2.7-2.1-4.8-4.8-4.8s-4.8,2.1-4.8,4.8c0,1.5,0.7,2.8,1.8,3.7c-2.5,0.8-4.6,2.7-5.7,5.1c-1.1-1.6-1.7-3.5-1.7-5.6
	c0-5.7,4.7-10.4,10.4-10.4c1.5,0,3,0.3,4.3,0.9c0.2-0.5,0.4-1,0.7-1.4c-1.6-0.7-3.2-1.1-5-1.1c-6.6,0-12,5.4-12,12s5.4,12,12,12
	s12-5.4,12-12c0-1.3-0.2-2.5-0.6-3.7C226,195.6,225.5,195.8,224.9,195.9L224.9,195.9z M211.8,195.8c0-1.8,1.4-3.2,3.2-3.2
	s3.2,1.4,3.2,3.2c0,1.8-1.4,3.2-3.2,3.2S211.8,197.6,211.8,195.8z M215,209.4c-3,0-5.7-1.3-7.6-3.3c1-3.2,4-5.5,7.6-5.5
	c3.5,0,6.5,2.3,7.6,5.5C220.7,208.1,218,209.4,215,209.4z"/>
<path class="st12" d="M224,188c1.7,0,3,1.3,3,3s-1.3,3-3,3s-3-1.3-3-3S222.3,188,224,188z"/>
<title>Page 1</title>
<g>
	<defs>
		<filter id="Adobe_OpacityMaskFilter" filterUnits="userSpaceOnUse" x="69" y="153" width="32" height="32">
			<feColorMatrix  type="matrix" values="1 0 0 0 0  0 1 0 0 0  0 0 1 0 0  0 0 0 1 0"/>
		</filter>
	</defs>
	<mask maskUnits="userSpaceOnUse" x="69" y="153" width="32" height="32" id="chb_1_">
		<g class="st31">
			<path id="cha_1_" class="st19" d="M69,153h32v32H69V153z"/>
		</g>
	</mask>
	<path class="st32" d="M85,181.9c-7.1,0-12.9-5.8-12.9-12.9s5.8-12.9,12.9-12.9s12.9,5.8,12.9,12.9S92.1,181.9,85,181.9z M85,153
		c-8.8,0-16,7.2-16,16c0,8.8,7.2,16,16,16s16-7.2,16-16C101,160.2,93.8,153,85,153z M83.5,171.6h3.1v-10.3h-3.1V171.6z M83.5,176.7
		h3.1v-3.1h-3.1V176.7z"/>
</g>
<title>高级</title>
<path class="st17" d="M113,225h2v8h-2V225z M120,221h2v12h-2V221z M127,217h2v16h-2V217z"/>
<g>
	<defs>
		<path id="SVGID_1_" d="M147,230c0,0.6-0.4,1-1,1h-8c-0.6,0-1-0.4-1-1s0.4-1,1-1h8C146.6,229,147,229.4,147,230z M147,225
			c0,0.6-0.4,1-1,1h-8c-0.6,0-1-0.4-1-1s0.4-1,1-1h8C146.6,224,147,224.4,147,225z M147,220c0,0.6-0.4,1-1,1h-8c-0.6,0-1-0.4-1-1
			s0.4-1,1-1h8C146.6,219,147,219.4,147,220z M134,226.7c0.6-0.3,1-1,1-1.7s-0.4-1.4-1-1.7v-1.6c0.6-0.3,1-1,1-1.7c0-1.1-0.9-2-2-2
			s-2,0.9-2,2c0,0.7,0.4,1.4,1,1.7v1.5c-0.6,0.4-1,1.1-1,1.8s0.4,1.4,1,1.7v1.5c-0.6,0.3-1,1-1,1.7c0,1.1,0.9,2,2,2s2-0.9,2-2
			c0-0.7-0.4-1.4-1-1.7V226.7z"/>
	</defs>
	<clipPath id="SVGID_2_">
		<use xlink:href="#SVGID_1_"  style="overflow:visible;"/>
	</clipPath>
	<g class="st33">
		<g>
			<defs>
				<rect id="SVGID_3_" x="-269" y="-970" width="1920" height="4750"/>
			</defs>
			<clipPath id="SVGID_4_">
				<use xlink:href="#SVGID_3_"  style="overflow:visible;"/>
			</clipPath>
			<path id="cjXMLID_6_" class="st34" d="M126,213h26v24h-26V213z"/>
		</g>
	</g>
</g>
<title>icon-success</title>
<path class="st35" d="M156,225.8l-1.7-1.7l-1.4,1.4l3.2,3.2l1.4-1.4l3.5-3.6l-1.4-1.4L156,225.8z M157,220c2.8,0,5,2.2,5,5
	s-2.2,5-5,5s-5-2.2-5-5S154.2,220,157,220 M157,218c-3.9,0-7,3.1-7,7s3.1,7,7,7s7-3.1,7-7S160.9,218,157,218z"/>
<g>
	<defs>
		<path id="SVGID_5_" d="M193,219c-3.3,0-6,2.7-6,6s2.7,6,6,6s6-2.7,6-6S196.3,219,193,219z M193,217c4.4,0,8,3.6,8,8s-3.6,8-8,8
			s-8-3.6-8-8S188.6,217,193,217z M194,224.6l1.7,1c0.5,0.3,0.6,0.9,0.4,1.4c-0.2,0.5-0.9,0.6-1.4,0.4l-2.7-1.7V222c0-0.6,0.4-1,1-1
			s1,0.4,1,1V224.6z"/>
	</defs>
	<clipPath id="SVGID_6_">
		<use xlink:href="#SVGID_5_"  style="overflow:visible;"/>
	</clipPath>
	<g class="st36">
		<g>
			<defs>
				<rect id="SVGID_7_" x="-310" y="-970" width="1920" height="4750"/>
			</defs>
			<clipPath id="SVGID_8_">
				<use xlink:href="#SVGID_7_"  style="overflow:visible;"/>
			</clipPath>
			<path id="cmXMLID_5_" class="st37" d="M180,212h26v26h-26V212z"/>
		</g>
	</g>
</g>
<g>
	<path class="st38" d="M211,218c-3.9,0-7,3.1-7,7s3.1,7,7,7s7-3.1,7-7S214.9,218,211,218z M211,231c-3.3,0-6-2.7-6-6s2.7-6,6-6
		s6,2.7,6,6S214.3,231,211,231z"/>
	<path class="st38" d="M210.9,227.7c-0.2,0-0.5,0.1-0.6,0.2c-0.2,0.2-0.3,0.4-0.3,0.6c0,0.2,0.1,0.4,0.3,0.6s0.4,0.3,0.6,0.3
		c0.2,0,0.4-0.1,0.6-0.2c0.2-0.2,0.3-0.4,0.3-0.6c0-0.3-0.1-0.5-0.3-0.6C211.4,227.7,211.2,227.7,210.9,227.7z M211.1,220.6
		c-0.9,0-1.6,0.3-2.1,0.8c-0.5,0.5-0.8,1.2-0.8,2.1h1.3c0-0.5,0.1-0.9,0.3-1.2c0.2-0.3,0.6-0.5,1.2-0.5c0.4,0,0.8,0.1,1,0.4
		c0.2,0.2,0.3,0.6,0.3,1c0,0.3-0.1,0.6-0.3,0.9l-0.2,0.2c-0.8,0.7-1.2,1.2-1.4,1.5c-0.2,0.3-0.2,0.7-0.2,1.1v0.2h1.3v-0.2
		c0-0.3,0.1-0.6,0.2-0.8c0.1-0.2,0.3-0.4,0.5-0.6c0.6-0.5,0.9-0.8,1-0.9c0.3-0.4,0.5-0.9,0.5-1.5c0-0.7-0.2-1.3-0.7-1.7
		C212.5,220.8,211.9,220.6,211.1,220.6z"/>
</g>
<g>
	<defs>
		<path id="SVGID_9_" d="M223,219v12h12v-12H223z M227,222l5,3l-5,3V222z M222,217h14c0.6,0,1,0.4,1,1v14c0,0.6-0.4,1-1,1h-14
			c-0.6,0-1-0.4-1-1v-14C221,217.4,221.4,217,222,217z"/>
	</defs>
	<clipPath id="SVGID_10_">
		<use xlink:href="#SVGID_9_"  style="overflow:visible;"/>
	</clipPath>
	<g class="st39">
		<g>
			<defs>
				<rect id="SVGID_11_" x="-180" y="-2597" width="1920" height="4750"/>
			</defs>
			<clipPath id="SVGID_12_">
				<use xlink:href="#SVGID_11_"  style="overflow:visible;"/>
			</clipPath>
			<path id="coXMLID_5_" class="st40" d="M216,212h26v26h-26V212z"/>
		</g>
	</g>
</g>
<title>icon</title>
<path class="st17" d="M246.5,227c-4.1,0-7.5,1.3-7.5,3v3h15v-3C254,228.3,250.6,227,246.5,227z M252,231h-11v-0.8
	c0.5-0.5,2.5-1.2,5.5-1.2s5,0.8,5.5,1.2V231z M246.5,226c2.5,0,4.5-2,4.5-4.5s-2-4.5-4.5-4.5s-4.5,2-4.5,4.5S244,226,246.5,226z
	 M246.5,219c1.4,0,2.5,1.1,2.5,2.5s-1.1,2.5-2.5,2.5s-2.5-1.1-2.5-2.5S245.1,219,246.5,219z"/>
<path class="st41" d="M15.9,239.9c-1.1-1.2-2.6-1.6-4-1.3c-0.3,0.1-0.5,0.4-0.5,0.7c0.1,0.3,0.4,0.5,0.7,0.5c1-0.2,2.1,0.1,2.9,0.9
	c0.7,0.8,0.9,2,0.6,3c-0.1,0.3,0.1,0.7,0.4,0.8c0.3,0.1,0.7-0.1,0.8-0.4C17.2,242.7,17,241.1,15.9,239.9z M14.1,243.7
	c0.3,0.1,0.6-0.1,0.7-0.3c0.2-0.7,0.1-1.5-0.4-2c-0.5-0.6-1.3-0.8-2-0.6c-0.3,0.1-0.5,0.3-0.4,0.6c0.1,0.3,0.3,0.5,0.6,0.4
	c0.3-0.1,0.7,0,1,0.3s0.3,0.7,0.2,1C13.6,243.3,13.8,243.6,14.1,243.7L14.1,243.7z M13,244.8c-0.2-0.1-0.5-0.1-0.3-0.4
	c0.3-0.6,0.4-1.2,0.1-1.6c-0.5-0.7-1.9-0.7-3.6,0c0,0-0.5,0.2-0.4-0.2c0.3-0.8,0.2-1.5-0.2-1.9c-0.9-0.9-3.2,0-5.2,2.1
	c-1.5,1.5-2.4,3.1-2.4,4.5c0,2.7,3.4,4.3,6.7,4.3c4.4,0,7.2-2.5,7.2-4.5C15,245.7,13.9,245,13,244.8L13,244.8z M7.7,250.5
	c-2.6,0.3-4.9-0.9-5.1-2.7c-0.2-1.7,1.8-3.4,4.5-3.6c2.6-0.3,4.9,0.9,5.1,2.7C12.4,248.7,10.4,250.3,7.7,250.5z M8,245.6
	c-1.3-0.3-2.7,0.3-3.2,1.4c-0.6,1.1,0,2.4,1.3,2.8s2.9-0.2,3.4-1.5C10,247.1,9.3,245.9,8,245.6L8,245.6z M7,248.5
	c-0.3,0.4-0.8,0.6-1.2,0.4c-0.4-0.2-0.5-0.7-0.3-1.1c0.3-0.4,0.8-0.6,1.2-0.4C7.1,247.6,7.3,248.1,7,248.5z M7.9,247.4
	c-0.1,0.2-0.3,0.2-0.5,0.2c-0.2-0.1-0.2-0.2-0.1-0.4s0.3-0.2,0.4-0.2C7.9,247,8,247.2,7.9,247.4z"/>
<path class="st13" d="M33.9,239.8c-1.1-1.2-2.6-1.6-4-1.3c-0.3,0.1-0.5,0.4-0.5,0.7c0.1,0.3,0.4,0.5,0.7,0.5c1-0.2,2.1,0.1,2.9,0.9
	c0.7,0.8,0.9,2,0.6,3c-0.1,0.3,0.1,0.7,0.4,0.8c0.3,0.1,0.7-0.1,0.8-0.4C35.2,242.6,35,241,33.9,239.8z M32.1,243.6
	c0.3,0.1,0.6-0.1,0.7-0.3c0.2-0.7,0.1-1.5-0.4-2c-0.5-0.6-1.3-0.8-2-0.6c-0.3,0.1-0.5,0.3-0.4,0.6c0.1,0.3,0.3,0.5,0.6,0.4
	c0.3-0.1,0.7,0,1,0.3s0.3,0.7,0.2,1C31.6,243.2,31.8,243.5,32.1,243.6L32.1,243.6z M31,244.7c-0.2-0.1-0.5-0.1-0.3-0.4
	c0.3-0.6,0.4-1.2,0.1-1.6c-0.5-0.7-1.9-0.7-3.6,0c0,0-0.5,0.2-0.4-0.2c0.3-0.8,0.2-1.5-0.2-1.9c-0.9-0.9-3.2,0-5.2,2.1
	c-1.5,1.5-2.4,3.1-2.4,4.5c0,2.7,3.4,4.3,6.7,4.3c4.4,0,7.2-2.5,7.2-4.5C33,245.6,31.9,244.9,31,244.7L31,244.7z M25.7,250.4
	c-2.6,0.3-4.9-0.9-5.1-2.7c-0.2-1.7,1.8-3.4,4.5-3.6c2.6-0.3,4.9,0.9,5.1,2.7C30.4,248.6,28.4,250.2,25.7,250.4z M26,245.5
	c-1.3-0.3-2.7,0.3-3.2,1.4c-0.6,1.1,0,2.4,1.3,2.8s2.9-0.2,3.4-1.5C28,247,27.3,245.8,26,245.5L26,245.5z M25,248.4
	c-0.3,0.4-0.8,0.6-1.2,0.4c-0.4-0.2-0.5-0.7-0.3-1.1c0.3-0.4,0.8-0.6,1.2-0.4C25.1,247.5,25.3,248,25,248.4z M25.9,247.3
	c-0.1,0.2-0.3,0.2-0.5,0.2c-0.2-0.1-0.2-0.2-0.1-0.4s0.3-0.2,0.4-0.2C25.9,246.9,26,247.1,25.9,247.3z"/>
<path class="st41" d="M53,246.8c0-2.3-2.3-4.1-4.8-4.1c-2.7,0-4.8,1.8-4.8,4.1s2.1,4.1,4.8,4.1c0.6,0,1.1-0.1,1.7-0.3l1.6,0.8
	l-0.4-1.4C52.2,249.2,53,248.1,53,246.8L53,246.8z M46.6,246.1c-0.3,0-0.5-0.2-0.5-0.5s0.2-0.5,0.5-0.5s0.5,0.2,0.5,0.5
	C47.1,245.8,46.9,246.1,46.6,246.1z M49.7,246.1c-0.3,0-0.5-0.2-0.5-0.5s0.2-0.5,0.5-0.5s0.5,0.2,0.5,0.5
	C50.2,245.8,50,246.1,49.7,246.1z M47.8,242.4h0.5c-0.5-2.3-2.9-4-5.7-4c-3.1,0-5.7,2.1-5.7,4.8c0,1.6,0.8,2.8,2.3,3.8l-0.6,1.7l2-1
	c0.7,0.1,1.3,0.3,2,0.3h0.5c-0.1-0.4-0.2-0.8-0.2-1.2C43,244.4,45.1,242.4,47.8,242.4L47.8,242.4z M44.7,240.9
	c0.4,0,0.8,0.3,0.8,0.7s-0.3,0.7-0.8,0.7c-0.4,0-0.8-0.3-0.8-0.7S44.3,240.9,44.7,240.9z M40.7,242.4c-0.4,0-0.7-0.3-0.7-0.7
	s0.3-0.7,0.7-0.7c0.4,0,0.8,0.3,0.8,0.7S41.1,242.4,40.7,242.4z"/>
<path class="st13" d="M71.1,246.9c0-2.3-2.3-4.1-4.8-4.1c-2.7,0-4.8,1.8-4.8,4.1s2.1,4.1,4.8,4.1c0.6,0,1.1-0.1,1.7-0.3l1.6,0.8
	l-0.4-1.4C70.3,249.3,71.1,248.2,71.1,246.9L71.1,246.9z M64.7,246.2c-0.3,0-0.5-0.2-0.5-0.5s0.2-0.5,0.5-0.5s0.5,0.2,0.5,0.5
	C65.2,245.9,65,246.2,64.7,246.2z M67.8,246.2c-0.3,0-0.5-0.2-0.5-0.5s0.2-0.5,0.5-0.5s0.5,0.2,0.5,0.5
	C68.3,245.9,68.1,246.2,67.8,246.2z M65.9,242.5h0.5c-0.5-2.3-2.9-4-5.7-4c-3.1,0-5.7,2.1-5.7,4.8c0,1.6,0.8,2.8,2.3,3.8l-0.6,1.7
	l2-1c0.7,0.1,1.3,0.3,2,0.3h0.5c-0.1-0.4-0.2-0.8-0.2-1.2C61.1,244.5,63.2,242.5,65.9,242.5L65.9,242.5z M62.8,241
	c0.4,0,0.8,0.3,0.8,0.7s-0.3,0.7-0.8,0.7c-0.4,0-0.8-0.3-0.8-0.7S62.4,241,62.8,241z M58.8,242.5c-0.4,0-0.7-0.3-0.7-0.7
	s0.3-0.7,0.7-0.7c0.4,0,0.8,0.3,0.8,0.7S59.2,242.5,58.8,242.5z"/>
<title>Group 20</title>
<g>
	<circle class="st42" cx="156" cy="83" r="9"/>
	<path class="st19" d="M155,78h2v6h-2V78z M155,86h2v2h-2V86z"/>
</g>
<title>Oval</title>
<g>
	<circle class="st43" cx="248" cy="142" r="9"/>
	<path class="st19" d="M247.3,146.1L247.3,146.1l-4.3-4.2l1.4-1.4l2.8,2.8l4.3-4.3l1.4,1.4L247.3,146.1
		C247.3,146.1,247.3,146.1,247.3,146.1z"/>
</g>
<path class="st13" d="M100,69l1.5-2h1.5l-3,4l-3-4h1.5L100,69z"/>
<path class="st12" d="M108,69l1.5-2h1.5l-3,4l-3-4h1.5L108,69z"/>
<path class="st4" d="M172,148v-10h3v1h-2v8h8v-2h1v3H172z M177.1,143.6l-0.7-0.7l2.8-2.8L177,138h5v5l-2.1-2.1L177.1,143.6z"/>
<path id="czXMLID_2_" class="st3" d="M284,267v-10h3v1h-2v8h8v-2h1v3H284z M289.1,262.6l-0.7-0.7l2.8-2.8L289,257h5v5l-2.1-2.1
	L289.1,262.6z"/>
<path id="daXMLID_2_" class="st3" d="M284,253v-10h3v1h-2v8h8v-2h1v3H284z M289.1,248.6l-0.7-0.7l2.8-2.8L289,243h5v5l-2.1-2.1
	L289.1,248.6z"/>
<path id="dbXMLID_2_" class="st4" d="M284,239v-10h3v1h-2v8h8v-2h1v3H284z M289.1,234.6l-0.7-0.7l2.8-2.8L289,229h5v5l-2.1-2.1
	L289.1,234.6z"/>
<path id="dcXMLID_2_" class="st19" d="M155,39V29h3v1h-2v8h8v-2h1v3H155z M160.1,34.6l-0.7-0.7l2.8-2.8L160,29h5v5l-2.1-2.1
	L160.1,34.6z"/>
<title>&amp;gt;</title>
<path class="st4" d="M287.2,205.5l-4.2,4.2l1.4,1.4l5.7-5.7l-1.4-1.4l-4.2-4.2l-1.4,1.4L287.2,205.5z"/>
<path class="st4" d="M164.7,55l4.3-4l-4.3-4l-0.7,0.7l3.6,3.3l-3.6,3.3L164.7,55z"/>
<path id="dfXMLID_9_" class="st19" d="M278,21h-10c-0.6,0-1,0.4-1,1v10c0,0.6,0.4,1,1,1h10c0.6,0,1-0.4,1-1V22
	C279,21.4,278.6,21,278,21z M271,31h-2v-5h2V31z M270,25c-0.6,0-1-0.4-1-1s0.4-1,1-1s1,0.4,1,1S270.6,25,270,25z M277,31h-2v-3h-1v3
	h-2v-5h2v1l1-1h2V31z"/>
<g id="dgXMLID_19_">
	<path id="dgXMLID_22_" class="st44" d="M30.5,94.6c-0.6,0.6-1.7,1.3-3.5,1.3H15.3c3.5-3.4,6.5-6.3,6.8-6.6c0.3-0.3,1-1,1.6-1.5
		c1.3-1.2,2.5-1.4,3.4-1.4c1.3,0,2.5,0.6,3.4,1.4C32.4,89.7,32.4,92.7,30.5,94.6 M32.8,85.6c-1.4-1.5-3.4-2.4-5.6-2.4
		c-1.9,0-3.5,0.7-5,1.8c-0.6,0.5-1.3,1.1-2.1,1.9c-0.5,0.5-12.3,12-12.3,12C8.4,99,9.2,99,10,99h14.9c1.1,0,1.9,0,2.7-0.1
		c1.8-0.1,3.6-0.8,5-2.2C35.8,93.7,35.8,88.7,32.8,85.6z"/>
	<path id="dgXMLID_2_" class="st45" d="M13.6,84.9c-1.4-1-3-1.6-4.7-1.6c-2.2,0-4.2,0.9-5.6,2.4c-3,3.1-3,8.1,0.1,11.2
		c1.3,1.2,2.8,1.9,4.4,2.1l3.1-3H9.1c-1.8-0.1-2.9-0.7-3.5-1.3c-1.9-1.9-1.9-4.9-0.1-6.8c0.9-0.9,2.1-1.4,3.4-1.4
		c0.8,0,2,0.2,3.3,1.3c0.6,0.5,2,1.7,2.6,2.2h0.1l2.1-2.1v-0.1C15.9,86.8,14.5,85.5,13.6,84.9"/>
	<path id="dgXMLID_1_" class="st46" d="M28,81.5c-1.5-4.1-5.4-7-10-7c-5.3,0-9.6,3.9-10.4,8.9c0.4-0.1,0.8-0.2,1.3-0.2
		c0.6,0,1.2,0.1,1.8,0.2c0.7-3.4,3.7-5.9,7.3-5.9c3,0,5.6,1.8,6.8,4.4c0,0,0.1,0.1,0.1,0c0.9-0.2,2-0.4,3-0.3
		C28,81.6,28,81.5,28,81.5"/>
</g>
<g id="dkXMLID_2_">
	<g id="dkXMLID_42_">
		<path id="dkXMLID_43_" class="st19" d="M239,73v2h22v-2H239z M239,83h22v-2h-22V83z M239,91h22v-2h-22V91z"/>
	</g>
</g>
<g id="dlXMLID_2_">
	<g id="dlXMLID_46_">
		<path id="dlXMLID_47_" class="st4" d="M239,53v2h22v-2H239z M239,63h22v-2h-22V63z M239,71h22v-2h-22V71z"/>
	</g>
</g>
<path class="st4" d="M266,147h14v2h-14V147z M266,152h14v2h-14V152z M266,157h14v2h-14V157z"/>
<path class="st19" d="M266,165h14v2h-14V165z M266,170h14v2h-14V170z M266,175h14v2h-14V175z"/>
<path class="st12" d="M208.5,78h25c0.8,0,1.5-0.7,1.5-1.5s-0.7-1.5-1.5-1.5h-25c-0.8,0-1.5,0.7-1.5,1.5S207.7,78,208.5,78z
	 M233.5,84h-25c-0.8,0-1.5,0.7-1.5,1.5s0.7,1.5,1.5,1.5h25c0.8,0,1.5-0.7,1.5-1.5S234.3,84,233.5,84z M233.5,93h-25
	c-0.8,0-1.5,0.7-1.5,1.5s0.7,1.5,1.5,1.5h25c0.8,0,1.5-0.7,1.5-1.5S234.3,93,233.5,93z"/>
<path class="st13" d="M208.5,112h25c0.8,0,1.5-0.7,1.5-1.5s-0.7-1.5-1.5-1.5h-25c-0.8,0-1.5,0.7-1.5,1.5S207.7,112,208.5,112z
	 M233.5,118h-25c-0.8,0-1.5,0.7-1.5,1.5s0.7,1.5,1.5,1.5h25c0.8,0,1.5-0.7,1.5-1.5S234.3,118,233.5,118z M233.5,127h-25
	c-0.8,0-1.5,0.7-1.5,1.5s0.7,1.5,1.5,1.5h25c0.8,0,1.5-0.7,1.5-1.5S234.3,127,233.5,127z"/>
<g transform="translate(0 2)">
	<path class="st47" d="M207.5,167.5v4h-1.7l1.7,3.4v4.6h24v-12H207.5z"/>
	<path class="st19" d="M211,173h4v-3h1v7h-1v-3h-4v3h-1v-7h1V173z M224,170h5v1h-5V170z"/>
	<path class="st19" d="M226,170h1v7h-1V170z"/>
	<circle class="st26" cx="220.5" cy="173.5" r="3"/>
</g>
<title>关闭</title>
<path class="st13" d="M277.6,237l-4.6,4.6l-4.6-4.6l-1.4,1.4l4.6,4.6l-4.6,4.6l1.4,1.4l4.6-4.6l4.6,4.6l1.4-1.4l-4.6-4.6l4.6-4.6
	L277.6,237z"/>
<title>关闭</title>
<path class="st12" d="M13.6,257L9,261.6L4.4,257L3,258.4l4.6,4.6L3,267.6l1.4,1.4l4.6-4.6l4.6,4.6l1.4-1.4l-4.6-4.6l4.6-4.6
	L13.6,257z"/>
<path id="dtXMLID_2_" class="st18" d="M25.2,263.7l3.6,3.3l0.7-0.7l-3.6-3.3l3.6-3.3l-0.7-0.7l-3.6,3.3l-0.7,0.7
	C24.5,263,25.2,263.7,25.2,263.7z"/>
<path id="duXMLID_2_" class="st48" d="M43.2,263.7l3.6,3.3l0.7-0.7l-3.6-3.3l3.6-3.3l-0.7-0.7l-3.6,3.3l-0.7,0.7
	C42.5,263,43.2,263.7,43.2,263.7z"/>
<path id="dvXMLID_5_" class="st18" d="M64.8,262.3l-3.6-3.5l-0.7,0.7l3.6,3.5l-3.6,3.5l0.7,0.7l3.6-3.5l0.7-0.7L64.8,262.3z"/>
<path id="dwXMLID_5_" class="st49" d="M82.8,262.3l-3.6-3.5l-0.7,0.7l3.6,3.5l-3.6,3.5l0.7,0.7l3.6-3.5l0.7-0.7L82.8,262.3z"/>
<g id="dxXMLID_51_">
	<path id="dxXMLID_52_" class="st22" d="M251,120h2c0-1.7-1.3-3-3-3v2C250.5,119,251,119.5,251,120z M255,120h2c0-3.9-3.1-7-7-7v2
		C252.8,115,255,117.2,255,120z M256,123h-5l-1,1c-0.1,0.1-0.3,0.2-0.4,0.2c-1.4,0-4.5-3.3-3.6-4.2l1-1v-5c0-0.6-0.4-1-1-1h-6
		c-0.5,0-1,0.5-1,1c0.3,11.9,5.1,16.7,17,17c0.6,0,1-0.4,1-1v-6C257,123.5,256.5,123,256,123z M255,129c-9.8-0.5-13.5-4.2-14-14h4
		v3.5l-1.3,1.5c0,0.2,0.1,1,0.4,1.8c1,2.5,4.4,4.3,5.9,4.4l1.5-1.2h3.5V129z"/>
</g>
<title>2</title>
<path id="dycgXMLID" class="st11" d="M112.1,257c0.6,0.7,1.2,1.6,1.6,2.4c-0.4,0.5-0.5,1-0.5,1.6c0,1.8,3.5,5.4,5.2,5.4h0.2
	c0.5,0,0.9-0.1,1.3-0.3l0.3-0.1c1,0.6,2,1.3,2.9,2c-0.3,0.6-0.8,1-1.4,1.2c-4,0-11-7.5-11-10.8C111,257.8,111.5,257.3,112.1,257
	 M112.3,255c-0.9,0-3.3,1.9-3.3,3.4c0,4.4,7.8,12.6,12.7,12.6c1.8-0.2,3.1-1.6,3.3-3.4c0-0.6-3.8-3.3-4.6-3.4
	c-0.8-0.1-1.3,0.4-2,0.4c-0.8,0-3.5-2.8-3.5-3.6s0.7-0.6,0.7-1.5C115.6,258.9,113.2,255,112.3,255z"/>
<title>2</title>
<path id="dzcgXMLID" class="st13" d="M130.1,257c0.6,0.7,1.2,1.6,1.6,2.4c-0.4,0.5-0.5,1-0.5,1.6c0,1.8,3.5,5.4,5.2,5.4h0.2
	c0.5,0,0.9-0.1,1.3-0.3l0.3-0.1c1,0.6,2,1.3,3,2c-0.3,0.6-0.8,1-1.4,1.2c-4,0-11-7.5-11-10.8C129,257.8,129.5,257.3,130.1,257
	 M130.3,255c-0.9,0-3.3,1.9-3.3,3.4c0,4.4,7.8,12.6,12.7,12.6c1.8-0.2,3.1-1.6,3.3-3.4c0-0.6-3.8-3.3-4.6-3.4
	c-0.8-0.1-1.3,0.4-2,0.4c-0.8,0-3.5-2.8-3.5-3.6s0.7-0.6,0.7-1.5C133.6,258.9,131.2,255,130.3,255z"/>
<title>Combined Shape</title>
<path class="st50" d="M163,209c5.5,0,10-4.5,10-10s-4.5-10-10-10s-10,4.5-10,10S157.5,209,163,209z M163,211c-6.6,0-12-5.4-12-12
	s5.4-12,12-12s12,5.4,12,12S169.6,211,163,211z M167.3,195.3l-5.4,5.3l-3.2-3.2l-1.4,1.4l4.6,4.6l6.8-6.7
	C168.7,196.7,167.3,195.3,167.3,195.3z"/>
<title>Artboard Copy</title>
<g>
	<path class="st22" d="M253,164h-10v2h10V164z"/>
	<path class="st22" d="M242,156v12h12v-12H242z M240,154h16v16h-16V154z"/>
	<path class="st22" d="M248,163h5v-2h-3L248,163z M246.5,162l0.7-0.7l2.8-2.8l-1.3-1.5l-2.9,2.8l-1.4-1.4l-1.4,1.4l2.8,2.8
		L246.5,162z"/>
</g>
<title>单-常态</title>
<circle class="st13" cx="189" cy="263" r="7.5"/>
<path class="st14" d="M189,256c3.9,0,7,3.1,7,7s-3.1,7-7,7s-7-3.1-7-7S185.1,256,189,256 M189,255c-4.4,0-8,3.6-8,8s3.6,8,8,8
	s8-3.6,8-8S193.4,255,189,255z"/>
<title>单-选中</title>
<circle class="st13" cx="207" cy="263" r="7.5"/>
<path class="st14" d="M207,256c3.9,0,7,3.1,7,7s-3.1,7-7,7s-7-3.1-7-7S203.1,256,207,256 M207,255c-4.4,0-8,3.6-8,8s3.6,8,8,8
	s8-3.6,8-8S211.4,255,207,255z"/>
<circle class="st12" cx="207" cy="263" r="4"/>
<title>单-不可点</title>
<circle class="st15" cx="225" cy="263" r="7.5"/>
<path class="st14" d="M225,256c3.9,0,7,3.1,7,7s-3.1,7-7,7s-7-3.1-7-7S221.1,256,225,256 M225,255c-4.4,0-8,3.6-8,8s3.6,8,8,8
	s8-3.6,8-8S229.4,255,225,255z"/>
<title>单-不可点02</title>
<circle class="st15" cx="243" cy="263" r="7.5"/>
<path class="st14" d="M243,256c3.9,0,7,3.1,7,7s-3.1,7-7,7s-7-3.1-7-7S239.1,256,243,256 M243,255c-4.4,0-8,3.6-8,8s3.6,8,8,8
	s8-3.6,8-8S247.4,255,243,255z"/>
<circle class="st14" cx="243" cy="263" r="4"/>
<g id="egXMLID_55_">
	<path id="egXMLID_56_" class="st22" d="M253,185h-10v2h10V185z M239,173v18h18v-18H239z M255,189h-14v-14h14V189z M248,183h5v-2h-3
		L248,183z M246.5,182l0.7-0.7l2.8-2.8l-1.3-1.5l-2.9,2.8l-1.4-1.4l-1.4,1.4l2.8,2.8L246.5,182z"/>
</g>
<title>对勾</title>
<g>
	<path class="st51" d="M121,74h24v24h-24V74z"/>
	<path class="st12" d="M130,90.2l-4.2-4.2l-1.4,1.4L130,93l12-12l-1.4-1.4L130,90.2z"/>
</g>
<g id="ejXMLID_2_">
	<g id="ejXMLID_36_">
		<path id="ejXMLID_37_" class="st13" d="M297.8,50.4l-2.5-2.5c1.1-1.2,1.7-2.7,1.7-4.4c0-3.6-2.9-6.5-6.5-6.5s-6.5,2.9-6.5,6.5
			s2.9,6.5,6.5,6.5c1.2,0,2.3-0.3,3.2-0.9l2.7,2.7c0.4,0.4,1,0.4,1.4,0C298.2,51.4,298.2,50.8,297.8,50.4z M286,43.5
			c0-2.5,2-4.5,4.5-4.5s4.5,2,4.5,4.5s-2,4.5-4.5,4.5S286,46,286,43.5z"/>
	</g>
</g>
<g id="ekXMLID_2_">
	<g id="ekXMLID_36_">
		<path id="ekXMLID_37_" class="st52" d="M297.8,68.4l-2.5-2.5c1.1-1.2,1.7-2.7,1.7-4.4c0-3.6-2.9-6.5-6.5-6.5s-6.5,2.9-6.5,6.5
			s2.9,6.5,6.5,6.5c1.2,0,2.3-0.3,3.2-0.9l2.7,2.7c0.4,0.4,1,0.4,1.4,0C298.2,69.4,298.2,68.8,297.8,68.4z M286,61.5
			c0-2.5,2-4.5,4.5-4.5s4.5,2,4.5,4.5s-2,4.5-4.5,4.5S286,64,286,61.5z"/>
	</g>
</g>
<path class="st13" d="M297.7,87.3l-2.5-2.5c1-1.1,1.7-2.7,1.7-4.3c0-3.6-2.9-6.5-6.5-6.5c-3.5,0-6.4,2.9-6.4,6.5s2.9,6.4,6.4,6.4
	c1.2,0,2.3-0.3,3.2-0.9l2.7,2.7c0.4,0.4,1,0.4,1.4,0S298.1,87.7,297.7,87.3L297.7,87.3z M290.4,84.9c-2.4,0-4.4-2-4.4-4.4
	s2-4.5,4.4-4.5c2.5,0,4.5,2,4.5,4.5S292.9,84.9,290.4,84.9z"/>
<path class="st12" d="M297.7,105.3l-2.5-2.5c1-1.1,1.7-2.7,1.7-4.3c0-3.6-2.9-6.5-6.5-6.5c-3.5,0-6.4,2.9-6.4,6.5s2.9,6.4,6.4,6.4
	c1.2,0,2.3-0.3,3.2-0.9l2.7,2.7c0.4,0.4,1,0.4,1.4,0S298.1,105.7,297.7,105.3L297.7,105.3z M290.4,102.9c-2.4,0-4.4-2-4.4-4.4
	s2-4.5,4.4-4.5c2.5,0,4.5,2,4.5,4.5S292.9,102.9,290.4,102.9z"/>
<path class="st53" d="M297.7,123.3l-2.5-2.5c1-1.1,1.7-2.7,1.7-4.3c0-3.6-2.9-6.5-6.5-6.5c-3.5,0-6.4,2.9-6.4,6.5s2.9,6.4,6.4,6.4
	c1.2,0,2.3-0.3,3.2-0.9l2.7,2.7c0.4,0.4,1,0.4,1.4,0S298.1,123.7,297.7,123.3L297.7,123.3z M290.4,120.9c-2.4,0-4.4-2-4.4-4.4
	s2-4.5,4.4-4.5c2.5,0,4.5,2,4.5,4.5S292.9,120.9,290.4,120.9z"/>
<path class="st12" d="M297.7,141.3l-2.5-2.5c1-1.1,1.7-2.7,1.7-4.3c0-3.6-2.9-6.5-6.5-6.5c-3.5,0-6.4,2.9-6.4,6.5s2.9,6.4,6.4,6.4
	c1.2,0,2.3-0.3,3.2-0.9l2.7,2.7c0.4,0.4,1,0.4,1.4,0S298.1,141.7,297.7,141.3L297.7,141.3z M290.4,138.9c-2.4,0-4.4-2-4.4-4.4
	s2-4.5,4.4-4.5c2.5,0,4.5,2,4.5,4.5S292.9,138.9,290.4,138.9z"/>
<path class="st17" d="M297.7,159.3l-2.5-2.5c1-1.1,1.7-2.7,1.7-4.3c0-3.6-2.9-6.5-6.5-6.5c-3.5,0-6.4,2.9-6.4,6.5s2.9,6.4,6.4,6.4
	c1.2,0,2.3-0.3,3.2-0.9l2.7,2.7c0.4,0.4,1,0.4,1.4,0S298.1,159.7,297.7,159.3L297.7,159.3z M290.4,156.9c-2.4,0-4.4-2-4.4-4.4
	s2-4.5,4.4-4.5c2.5,0,4.5,2,4.5,4.5S292.9,156.9,290.4,156.9z"/>
<title>Artboard</title>
<path class="st22" d="M3,224h1c0-3.3,2.7-6,6-6s6,2.7,6,6h1c1.1,0,2,0.9,2,2v2c0,1.1-0.9,2-2,2h-1c0,2.2-1.8,4-4,4H8v-3h4v1
	c1.1,0,2-0.9,2-2v-6c0-2.2-1.8-4-4-4s-4,1.8-4,4v6H3c-1.1,0-2-0.9-2-2v-2C1,224.9,1.9,224,3,224z M17,228v-2h-1v2H17z M3,228h1v-2H3
	V228z"/>
<path class="st18" d="M21,235v-18h18v18H21z M37,219H23v2h14V219z M37,223H23v10h14V223z M30,228c1.7,0,3-1.3,3-3h2c0,2.8-2.2,5-5,5
	s-5-2.2-5-5h2C27,226.7,28.3,228,30,228z"/>
<linearGradient id="SVGID_13_" gradientUnits="userSpaceOnUse" x1="5.1497" y1="279.4507" x2="21.3967" y2="263.2027" gradientTransform="matrix(1 0 0 -1 95 358)">
	<stop  offset="0" style="stop-color:#FFFFFF"/>
	<stop  offset="1" style="stop-color:#FFFFFF"/>
</linearGradient>
<path class="st54" d="M116.5,94.6l-3.6-3.4c1.6-1.6,2.6-3.8,2.6-6.3c0-5-4-9-9-9s-9,4-9,9s4,9,9,9c1.8,0,3.5-0.5,4.9-1.4l3.8,3.6
	C115.2,96.1,116.5,94.6,116.5,94.6z M106.4,92c-3.9,0-7-3.1-7-7s3.1-7,7-7s7,3.1,7,7C113.5,88.9,110.3,92,106.4,92z"/>
<path class="st35" d="M221,35c-8.8,0-16,7.2-16,16s7.2,16,16,16s16-7.2,16-16S229.8,35,221,35z M221,65c-7.7,0-14-6.3-14-14
	s6.3-14,14-14s14,6.3,14,14S228.7,65,221,65z"/>
<path class="st35" d="M219.7,54.2l-4.3-4.3l-1.4,1.4l5.7,5.7l9.1-9.2l-1.4-1.4L219.7,54.2z"/>
<path id="euXMLID_11_" class="st21" d="M221,1c-8.8,0-16,7.2-16,16s7.2,16,16,16s16-7.2,16-16S229.8,1,221,1z M221,31
	c-7.7,0-14-6.3-14-14s6.3-14,14-14s14,6.3,14,14S228.7,31,221,31z"/>
<path id="euXMLID_1_" class="st21" d="M220,10h2v10h-2V10z"/>
<path id="euXMLID_7_" class="st21" d="M220,22h2v2h-2V22z"/>
<g id="evXMLID_2_">
	<path id="evXMLID_6_" class="st12" d="M187,153c-8.8,0-16,7.2-16,16s7.2,16,16,16s16-7.2,16-16S195.8,153,187,153z M187,183
		c-7.7,0-14-6.3-14-14s6.3-14,14-14s14,6.3,14,14S194.7,183,187,183z"/>
	<path id="evXMLID_10_" class="st12" d="M187,161h-2v10h10v-2h-8V161z"/>
</g>
<g>
	<defs>
		<filter id="Adobe_OpacityMaskFilter_1_" filterUnits="userSpaceOnUse" x="137" y="153" width="32" height="32">
			<feColorMatrix  type="matrix" values="1 0 0 0 0  0 1 0 0 0  0 0 1 0 0  0 0 0 1 0"/>
		</filter>
	</defs>
	<mask maskUnits="userSpaceOnUse" x="137" y="153" width="32" height="32" id="ewb_1_">
		<g class="st55">
			<path id="ewa_1_" class="st19" d="M137,153h32v32h-32V153z"/>
		</g>
	</mask>
	<path class="st56" d="M153,183c-7.7,0-14-6.3-14-14s6.3-14,14-14s14,6.3,14,14S160.7,183,153,183 M153,153c-8.8,0-16,7.2-16,16
		c0,8.8,7.2,16,16,16s16-7.2,16-16C169,160.2,161.8,153,153,153"/>
	<path class="st43" d="M150.7,171.8l-4.3-4.3l-1.4,1.4l5.7,5.7l10.2-10.2l-1.4-1.4L150.7,171.8z"/>
</g>
<path id="exXMLID_2_" class="st8" d="M171,239c-3.3,0-6,2.7-6,6s2.7,6,6,6s6-2.7,6-6S174.3,239,171,239z M171,237c4.4,0,8,3.6,8,8
	s-3.6,8-8,8s-8-3.6-8-8S166.6,237,171,237z M172,244.6l1.7,1c0.5,0.3,0.6,0.9,0.4,1.4c-0.3,0.5-0.9,0.6-1.4,0.4l-2.7-1.7V242
	c0-0.6,0.4-1,1-1s1,0.4,1,1V244.6z"/>
<path class="st57" d="M153,248l-5-6h10L153,248z"/>
<path class="st57" d="M140,248h-10l5-6L140,248z"/>
<path class="st13" d="M251,27c-6.6,0-12,5.4-12,12s5.4,12,12,12s12-5.4,12-12S257.6,27,251,27z M251,28.6c5.7,0,10.4,4.7,10.4,10.4
	c0,2.1-0.6,4-1.7,5.6c-1.1-2.4-3.2-4.3-5.7-5.1c1.1-0.9,1.8-2.2,1.8-3.7c0-2.7-2.1-4.8-4.8-4.8s-4.8,2.1-4.8,4.8
	c0,1.5,0.7,2.8,1.8,3.7c-2.5,0.8-4.6,2.7-5.7,5.1c-1.1-1.6-1.7-3.5-1.7-5.6C240.6,33.3,245.3,28.6,251,28.6L251,28.6z M251,39
	c-1.8,0-3.2-1.4-3.2-3.2c0-1.8,1.4-3.2,3.2-3.2s3.2,1.4,3.2,3.2C254.2,37.6,252.8,39,251,39z M251,49.4c-3,0-5.7-1.3-7.6-3.3
	c1-3.2,4-5.5,7.6-5.5c3.5,0,6.5,2.3,7.6,5.5C256.7,48.1,254,49.4,251,49.4z"/>
<path class="st12" d="M251,1c-6.6,0-12,5.4-12,12s5.4,12,12,12s12-5.4,12-12S257.6,1,251,1z M251,2.6c5.7,0,10.4,4.7,10.4,10.4
	c0,2.1-0.6,4-1.7,5.6c-1.1-2.4-3.2-4.3-5.7-5.1c1.1-0.9,1.8-2.2,1.8-3.7c0-2.7-2.1-4.8-4.8-4.8s-4.8,2.1-4.8,4.8
	c0,1.5,0.7,2.8,1.8,3.7c-2.5,0.8-4.6,2.7-5.7,5.1c-1.1-1.6-1.7-3.5-1.7-5.6C240.6,7.3,245.3,2.6,251,2.6L251,2.6z M251,13
	c-1.8,0-3.2-1.4-3.2-3.2c0-1.8,1.4-3.2,3.2-3.2s3.2,1.4,3.2,3.2C254.2,11.6,252.8,13,251,13z M251,23.4c-3,0-5.7-1.3-7.6-3.3
	c1-3.2,4-5.5,7.6-5.5c3.5,0,6.5,2.3,7.6,5.5C256.7,22.1,254,23.4,251,23.4z"/>
<g>
	<path class="st58" d="M140.7,188.2c-0.5,0.5-1,1-1.2,1.6c-1.4-0.6-2.9-0.9-4.5-0.9c-6.6,0-12,5.4-12,12s5.4,12,12,12s12-5.4,12-12
		c0-1.6-0.3-3.1-0.9-4.5c0.6-0.3,1.2-0.7,1.6-1.2c0.8,1.8,1.2,3.8,1.2,5.7c0,7.7-6.3,14-14,14s-14-6.3-14-14s6.3-14,14-14
		C137,187,139,187.4,140.7,188.2z"/>
	<path class="st58" d="M135,213c3.1,0,6.2-1.2,8.4-3.4c-1.8-2.9-5-4.6-8.4-4.6c-3.4,0-6.6,1.7-8.4,4.6
		C128.8,211.8,131.9,213,135,213z M135,203c4.6,0,8.9,2.7,10.8,6.9c-2.7,3.3-6.6,5.1-10.8,5.1c-4.2,0-8.2-1.9-10.8-5.1
		C126.1,205.7,130.4,203,135,203z"/>
	<circle class="st59" cx="144" cy="192" r="3"/>
	<path class="st58" d="M135,203c2.2,0,4-1.8,4-4s-1.8-4-4-4s-4,1.8-4,4S132.8,203,135,203z M135,205c-3.3,0-6-2.7-6-6s2.7-6,6-6
		s6,2.7,6,6S138.3,205,135,205z"/>
</g>
<g>
	<path class="st58" d="M110.7,188.2c-0.5,0.5-1,1-1.2,1.6c-1.4-0.6-2.9-0.9-4.5-0.9c-6.6,0-12,5.4-12,12s5.4,12,12,12s12-5.4,12-12
		c0-1.6-0.3-3.1-0.9-4.5c0.6-0.3,1.2-0.7,1.6-1.2c0.8,1.8,1.2,3.8,1.2,5.7c0,7.7-6.3,14-14,14s-14-6.3-14-14s6.3-14,14-14
		C107,187,109,187.4,110.7,188.2z"/>
	<path class="st58" d="M105,213c3.1,0,6.2-1.2,8.4-3.4c-1.8-2.9-5-4.6-8.4-4.6c-3.4,0-6.6,1.7-8.4,4.6C98.8,211.8,101.9,213,105,213
		z M105,203c4.6,0,8.9,2.7,10.8,6.9c-2.7,3.3-6.6,5.1-10.8,5.1c-4.2,0-8.2-1.9-10.8-5.1C96.1,205.7,100.4,203,105,203z"/>
	<circle class="st4" cx="114" cy="192" r="3"/>
	<path class="st58" d="M105,203c2.2,0,4-1.8,4-4s-1.8-4-4-4s-4,1.8-4,4S102.8,203,105,203z M105,205c-3.3,0-6-2.7-6-6s2.7-6,6-6
		s6,2.7,6,6S108.3,205,105,205z"/>
</g>
<g>
	<path class="st13" d="M224.7,138.2c-0.5,0.5-1,1-1.2,1.6c-1.4-0.6-2.9-0.9-4.5-0.9c-6.6,0-12,5.4-12,12s5.4,12,12,12s12-5.4,12-12
		c0-1.6-0.3-3.1-0.9-4.5c0.6-0.3,1.2-0.7,1.6-1.2c0.8,1.8,1.2,3.8,1.2,5.7c0,7.7-6.3,14-14,14s-14-6.3-14-14s6.3-14,14-14
		C221,137,223,137.4,224.7,138.2z"/>
	<path class="st13" d="M219,163c3.1,0,6.2-1.2,8.4-3.4c-1.8-2.9-5-4.6-8.4-4.6c-3.4,0-6.6,1.7-8.4,4.6
		C212.8,161.8,215.9,163,219,163z M219,153c4.6,0,8.9,2.7,10.8,6.9c-2.7,3.3-6.6,5.1-10.8,5.1c-4.2,0-8.2-1.9-10.8-5.1
		C210.1,155.7,214.4,153,219,153z"/>
	<circle class="st19" cx="228" cy="142" r="3"/>
	<path class="st13" d="M219,153c2.2,0,4-1.8,4-4s-1.8-4-4-4s-4,1.8-4,4S216.8,153,219,153z M219,155c-3.3,0-6-2.7-6-6s2.7-6,6-6
		s6,2.7,6,6S222.3,155,219,155z"/>
</g>
<g>
	<path class="st12" d="M20.7,188.2c-0.5,0.5-1,1-1.2,1.6c-1.4-0.6-2.9-0.9-4.5-0.9c-6.6,0-12,5.4-12,12s5.4,12,12,12s12-5.4,12-12
		c0-1.6-0.3-3.1-0.9-4.5c0.6-0.3,1.2-0.7,1.6-1.2c0.8,1.8,1.2,3.8,1.2,5.7c0,7.7-6.3,14-14,14s-14-6.3-14-14s6.3-14,14-14
		C17,187,19,187.4,20.7,188.2z"/>
	<path class="st12" d="M15,213c3.1,0,6.2-1.2,8.4-3.4c-1.8-2.9-5-4.6-8.4-4.6c-3.4,0-6.6,1.7-8.4,4.6C8.8,211.8,11.9,213,15,213z
		 M15,203c4.6,0,8.9,2.7,10.8,6.9c-2.7,3.3-6.6,5.1-10.8,5.1c-4.2,0-8.2-1.9-10.8-5.1C6.1,205.7,10.4,203,15,203z"/>
	<circle class="st4" cx="24" cy="192" r="3"/>
	<path class="st12" d="M15,203c2.2,0,4-1.8,4-4s-1.8-4-4-4s-4,1.8-4,4S12.8,203,15,203z M15,205c-3.3,0-6-2.7-6-6s2.7-6,6-6
		s6,2.7,6,6S18.3,205,15,205z"/>
</g>
<g>
	<path class="st13" d="M50.7,188.2c-0.5,0.5-1,1-1.2,1.6c-1.4-0.6-2.9-0.9-4.5-0.9c-6.6,0-12,5.4-12,12s5.4,12,12,12s12-5.4,12-12
		c0-1.6-0.3-3.1-0.9-4.5c0.6-0.3,1.2-0.7,1.6-1.2c0.8,1.8,1.2,3.8,1.2,5.7c0,7.7-6.3,14-14,14s-14-6.3-14-14s6.3-14,14-14
		C47,187,49,187.4,50.7,188.2z"/>
	<path class="st13" d="M45,213c3.1,0,6.2-1.2,8.4-3.4c-1.8-2.9-5-4.6-8.4-4.6c-3.4,0-6.6,1.7-8.4,4.6C38.8,211.8,41.9,213,45,213z
		 M45,203c4.6,0,8.9,2.7,10.8,6.9c-2.7,3.3-6.6,5.1-10.8,5.1c-4.2,0-8.2-1.9-10.8-5.1C36.1,205.7,40.4,203,45,203z"/>
	<circle class="st4" cx="54" cy="192" r="3"/>
	<path class="st13" d="M45,203c2.2,0,4-1.8,4-4s-1.8-4-4-4s-4,1.8-4,4S42.8,203,45,203z M45,205c-3.3,0-6-2.7-6-6s2.7-6,6-6
		s6,2.7,6,6S48.3,205,45,205z"/>
</g>
<g>
	<path class="st12" d="M80.7,188.2c-0.5,0.5-1,1-1.2,1.6c-1.4-0.6-2.9-0.9-4.5-0.9c-6.6,0-12,5.4-12,12s5.4,12,12,12s12-5.4,12-12
		c0-1.6-0.3-3.1-0.9-4.5c0.6-0.3,1.2-0.7,1.6-1.2c0.8,1.8,1.2,3.8,1.2,5.7c0,7.7-6.3,14-14,14s-14-6.3-14-14s6.3-14,14-14
		C77,187,79,187.4,80.7,188.2z"/>
	<path class="st12" d="M75,213c3.1,0,6.2-1.2,8.4-3.4c-1.8-2.9-5-4.6-8.4-4.6c-3.4,0-6.6,1.7-8.4,4.6C68.8,211.8,71.9,213,75,213z
		 M75,203c4.6,0,8.9,2.7,10.8,6.9c-2.7,3.3-6.6,5.1-10.8,5.1c-4.2,0-8.2-1.9-10.8-5.1C66.1,205.7,70.4,203,75,203z"/>
	<circle class="st4" cx="84" cy="192" r="3"/>
	<path class="st12" d="M75,203c2.2,0,4-1.8,4-4s-1.8-4-4-4s-4,1.8-4,4S72.8,203,75,203z M75,205c-3.3,0-6-2.7-6-6s2.7-6,6-6
		s6,2.7,6,6S78.3,205,75,205z"/>
</g>
<path id="fiXMLID_2_" class="st8" d="M165,257v12h12v-12H165z M169,260l5,3l-5,3V260z M164,255h14c0.6,0,1,0.4,1,1v14
	c0,0.6-0.4,1-1,1h-14c-0.6,0-1-0.4-1-1v-14C163,255.4,163.4,255,164,255z"/>
<path id="fjXMLID_1_" class="st13" d="M63.3,155.3l1.4,1.4l-26,26l-1.4-1.4L63.3,155.3z"/>
<path id="fjXMLID_2_" class="st13" d="M64.8,181.3l-1.4,1.4l-26-26l1.4-1.4L64.8,181.3z"/>
<path class="st12" d="M63.3,121.3l1.4,1.4l-26,26l-1.4-1.4L63.3,121.3z"/>
<path class="st12" d="M64.8,147.3l-1.4,1.4l-25.9-26l1.4-1.4L64.8,147.3z"/>
<g id="flXMLID_2_">
	<g id="flXMLID_50_">
		<path id="flXMLID_51_" class="st19" d="M270.7,218c-3.2,0-5.7,2.1-5.7,4.8c0,1.6,0.8,2.8,2.3,3.8l-0.6,1.7l2-1
			c0.7,0.1,1.3,0.3,2,0.3h0.5c-0.1-0.4-0.2-1.2-0.2-1.6c0-1.8,1.7-3.8,4-4c0.3,0,1.2-0.1,1.4-0.1C275.9,219.7,273.4,218,270.7,218z
			 M268.7,221.9c-0.4,0-0.7-0.4-0.7-0.8c0-0.4,0.3-0.7,0.7-0.7c0.4,0,0.8,0.3,0.8,0.7C269.5,221.5,269.1,221.9,268.7,221.9z
			 M272.7,221.9c-0.4,0-0.8-0.3-0.8-0.7c0-0.4,0.3-0.7,0.8-0.7c0.4,0,0.8,0.3,0.8,0.7C273.4,221.5,273.1,221.9,272.7,221.9z"/>
	</g>
</g>
<path id="flXMLID_19_" class="st19" d="M277,229l2,2v-2H277"/>
<path id="flXMLID_8_" class="st19" d="M276.5,223c-2.5,0-4.5,1.6-4.5,3.5s2,3.5,4.5,3.5s4.5-1.5,4.5-3.5
	C281,224.6,279,223,276.5,223z M274.5,226c-0.3,0-0.5-0.2-0.5-0.5s0.2-0.5,0.5-0.5s0.5,0.2,0.5,0.5S274.8,226,274.5,226z M277.5,226
	c-0.3,0-0.5-0.2-0.5-0.5s0.2-0.5,0.5-0.5s0.5,0.2,0.5,0.5S277.8,226,277.5,226z"/>
<g id="fmXMLID_2_">
	<g id="fmXMLID_83_">
		<path id="fmXMLID_84_" class="st13" d="M279.9,201.4c-1.1-1.2-2.6-1.6-4-1.3c-0.3,0.1-0.5,0.4-0.5,0.7c0.1,0.3,0.4,0.5,0.7,0.5
			c1-0.2,2.1,0.1,2.9,0.9c0.7,0.8,0.9,2,0.6,3c-0.1,0.3,0.1,0.7,0.4,0.8s0.7-0.1,0.8-0.4C281.2,204.2,281,202.6,279.9,201.4z
			 M278.1,205.2c0.3,0.1,0.6-0.1,0.7-0.3c0.2-0.7,0.1-1.5-0.4-2c-0.5-0.6-1.3-0.8-2-0.6c-0.3,0.1-0.5,0.3-0.4,0.6
			c0.1,0.3,0.3,0.5,0.6,0.4c0.3-0.1,0.7,0,1,0.3c0.3,0.3,0.3,0.7,0.2,1C277.6,204.8,277.8,205.1,278.1,205.2z M277,206.3
			c-0.2-0.1-0.5-0.1-0.3-0.4c0.3-0.6,0.4-1.2,0.1-1.6c-0.5-0.7-1.9-0.7-3.6,0c0,0-0.5,0.2-0.4-0.2c0.3-0.9,0.2-1.5-0.2-1.9
			c-0.9-0.9-3.2,0-5.2,2.1c-1.5,1.4-2.4,3-2.4,4.4c0,2.7,3.4,4.3,6.7,4.3c4.4,0,7.2-2.5,7.2-4.5C279,207.2,277.9,206.5,277,206.3z
			 M271.7,212c-2.6,0.3-4.9-0.9-5.1-2.7c-0.2-1.7,1.9-3.3,4.5-3.6s4.9,0.9,5.1,2.7C276.4,210.1,274.4,211.8,271.7,212z M272,207.1
			c-1.3-0.4-2.7,0.3-3.2,1.4c-0.6,1.1,0,2.4,1.3,2.8c1.3,0.4,2.9-0.2,3.4-1.5C274,208.6,273.3,207.4,272,207.1z M271,210
			c-0.3,0.4-0.8,0.6-1.2,0.4c-0.4-0.2-0.5-0.7-0.3-1.1c0.3-0.4,0.8-0.6,1.2-0.4C271.1,209.1,271.3,209.6,271,210z M271.9,208.9
			c-0.1,0.2-0.3,0.2-0.5,0.2c-0.1-0.1-0.2-0.3-0.1-0.4c0.1-0.2,0.3-0.2,0.4-0.2C271.9,208.5,272,208.7,271.9,208.9z"/>
	</g>
</g>
<path class="st8" d="M109.5,274.4l-0.7-0.8l-4.3,4.3l-4.3-4.3l-0.7,0.8l4.3,4.2l0.7,0.8v-0.1v0.1l0.7-0.8L109.5,274.4z"/>
<g>
	<path class="st60" d="M32.5,18.7"/>
	<text transform="matrix(1 0 0 1 5.5098 37.6894)" class="st60 st61 st62">PA</text>
	<rect x="3" y="19.7" class="st63" width="61.6" height="15.2"/>
	<text transform="matrix(1 0 0 1 7.041 31.373)" class="st60 st64 st65">JIANG</text>
	<text transform="matrix(1 0 0 1 34.8359 31.4531)" class="st60 st64 st66">XIN</text>
	<polyline class="st60" points="51.7,19.7 59,19.7 59,34.9 51.7,34.9 	"/>
	<polyline class="st60" points="51.7,12.1 59,12.1 59,19.7 51.7,19.7 	"/>
	<polyline class="st60" points="51.7,34.9 59,34.9 59,37.7 51.7,37.7 	"/>
	<rect x="51.7" y="6.5" class="st60" width="7.3" height="4.6"/>
</g>
<path class="st67" d="M93.7,94.2"/>
<path class="st13" d="M94.1,89.9"/>
<path class="st13" d="M94.3,91.4"/>
<path class="st60" d="M95.2,90.2"/>
<g>
	<g>
		<path class="st63" d="M100.6,35.9H81.4c-2.3,0-4.2-1.9-4.2-4.2V12.5c0-2.3,1.9-4.2,4.2-4.2h19.1c2.3,0,4.2,1.9,4.2,4.2v19.1
			C104.8,34,102.9,35.9,100.6,35.9z"/>
		<text transform="matrix(1 0 0 1 80.7621 27.7095)" class="st60 st61 st68">PA</text>
		<g>
			<path class="st63" d="M101.7,26.3C101.7,26.3,101.7,26.3,101.7,26.3l-21.8,0c0,0,0,0,0,0v-4c0,0,0,0,0,0h21.8c0,0,0,0,0,0V26.3z"
				/>
		</g>
		<text transform="matrix(1 0 0 1 81.3051 25.771)" class="st60 st64 st69">JIANG</text>
	</g>
	<text transform="matrix(1 0 0 1 91.1391 25.8003)" class="st60 st64 st70">XIN</text>
	<polyline class="st60" points="97.1,21.3 99.7,21.3 99.7,26.7 97.1,26.7 	"/>
	<polyline class="st60" points="97.1,18.6 99.7,18.6 99.7,21.3 97.1,21.3 	"/>
	<polyline class="st60" points="97.1,26.7 99.7,26.7 99.7,27.7 97.1,27.7 	"/>
	<rect x="97.1" y="16.7" class="st60" width="2.6" height="1.6"/>
</g>
<g>
	<path class="st13" d="M27.2,49.1"/>
	<path class="st60" d="M28.2,49.4"/>
	<text transform="matrix(1.0093 0 0 1 27.6116 56.3477)" class="st71 st72 st73">匠心派</text>
	<g>
		<path class="st67" d="M13.1,51.4"/>
		<path class="st13" d="M13.4,48.1"/>
		<path class="st13" d="M13.6,49.2"/>
		<path class="st60" d="M14.2,48.3"/>
		<path class="st63" d="M19.7,62.4H7.5c-2.3,0-4.2-1.9-4.2-4.2V46c0-2.3,1.9-4.2,4.2-4.2h12.2c2.3,0,4.2,1.9,4.2,4.2v12.2
			C23.9,60.5,22,62.4,19.7,62.4z"/>
		<text transform="matrix(1 0 0 1 5.9094 56.3091)" class="st60 st61 st74">PA</text>
		<g>
			<path class="st63" d="M21.6,55.3C21.6,55.3,21.6,55.3,21.6,55.3l-16.3,0c0,0,0,0,0,0v-3c0,0,0,0,0,0h16.3c0,0,0,0,0,0V55.3z"/>
		</g>
		<text transform="matrix(1 0 0 1 6.3157 54.8545)" class="st60 st64 st75">JIANG</text>
		<text transform="matrix(1 0 0 1 13.6926 54.876)" class="st60 st64 st76">XIN</text>
		<polyline class="st60" points="18.2,51.5 20.1,51.5 20.1,55.6 18.2,55.6 		"/>
		<polyline class="st60" points="18.2,49.5 20.1,49.5 20.1,51.5 18.2,51.5 		"/>
		<polyline class="st60" points="18.2,55.6 20.1,55.6 20.1,56.3 18.2,56.3 		"/>
		<rect x="18.2" y="48" class="st60" width="1.9" height="1.2"/>
	</g>
	<text transform="matrix(1 0 0 1 74.4251 51.2076)" class="st77 st78 st79">助力你的互联网创业</text>
	<text transform="matrix(1 0 0 1 74.7581 57.3672)" class="st80 st81 st82">JIANGXINPAI.COM</text>
</g>
</svg>
